<?xml version="1.0" encoding="UTF-8"?>
<svg width="16px" height="14px" viewBox="0 0 16 14" version="1.1" xmlns="http://www.w3.org/2000/svg" xmlns:xlink="http://www.w3.org/1999/xlink">
    <title>容器管理icon</title>
    <g id="门户" stroke="none" stroke-width="1" fill="none" fill-rule="evenodd">
        <g id="左导航设计规范" transform="translate(-770.000000, -563.000000)" fill="#666666" fill-rule="nonzero">
            <g id="容器管理icon" transform="translate(770.000000, 562.000000)">
                <path d="M13.5218824,1 L15.9990588,4.29391729 L16,4.2944039 L16,15 L0,15 L0,4.2944039 L14.2108235,4.29391729 L12.8310588,2.45985401 L3.16894118,2.45985401 L1.78917649,4.29391729 L0.000941183824,4.29391729 L2.47811766,1 L13.5218824,1 Z M14.5882353,5.75425792 L1.41176471,5.75425792 L1.41176471,13.540146 L14.5882353,13.540146 L14.5882353,5.75425792 L14.5882353,5.75425792 Z M5.1764706,7.21411193 L5.1764706,12.080292 L3.76470589,12.080292 L3.76470589,7.21411193 L5.1764706,7.21411193 Z M8.94117649,7.21411193 L8.94117649,12.080292 L7.52941178,12.080292 L7.52941178,7.21411193 L8.94117649,7.21411193 Z M12.7058824,7.21411193 L12.7058824,12.080292 L11.2941176,12.080292 L11.2941176,7.21411193 L12.7058824,7.21411193 Z" id="形状"></path>
            </g>
        </g>
    </g>
</svg>