<?xml version="1.0" encoding="UTF-8"?>
<svg width="16px" height="16px" viewBox="0 0 16 16" version="1.1" xmlns="http://www.w3.org/2000/svg" xmlns:xlink="http://www.w3.org/1999/xlink">
    <title>数据梦工厂icon</title>
    <g id="门户" stroke="none" stroke-width="1" fill="none" fill-rule="evenodd">
        <g id="左导航设计规范" transform="translate(-770.000000, -482.000000)" fill="#666666" fill-rule="nonzero">
            <g id="数据梦工厂icon" transform="translate(770.000000, 482.000000)">
                <path d="M1.64524422,9.75219024 L1.64524422,16 L2.66453526e-15,16 L2.66453526e-15,9.75219024 L1.64524422,9.75219024 Z M6.29305913,7.74968711 L6.29305913,16 L4.64781491,16 L4.64781491,7.74968711 L6.29305913,7.74968711 Z M10.940874,8.97121402 L10.940874,15.979975 L9.29562982,15.979975 L9.29562982,8.97121402 L10.940874,8.97121402 Z M15.5886889,5.40675845 L15.5886889,15.979975 L13.9434447,15.979975 L13.9434447,5.40675845 L15.5886889,5.40675845 Z M14.7660668,4.5519144e-14 C15.4475493,4.5519144e-14 16,0.537930714 16,1.20150188 C16,1.86507304 15.4475493,2.40300375 14.7660668,2.40300375 C14.7210303,2.40300375 14.6765574,2.40065441 14.6327701,2.39607473 L10.6118252,7.76971214 L9.74807198,7.88986233 L5.6966581,4.8660826 L1.23393316,8.49061327 L0.431876607,7.56946183 L5.3059126,3.64455569 L6.06683805,3.62453066 L9.99485861,6.54818523 L13.6405476,1.69469621 C13.5708947,1.54422143 13.5321337,1.37726924 13.5321337,1.20150188 C13.5321337,0.537930714 14.0845844,4.5519144e-14 14.7660668,4.5519144e-14 Z" id="形状结合"></path>
            </g>
        </g>
    </g>
</svg>