<?xml version="1.0" encoding="UTF-8"?>
<svg width="12px" height="14px" viewBox="0 0 12 14" version="1.1" xmlns="http://www.w3.org/2000/svg" xmlns:xlink="http://www.w3.org/1999/xlink">
    <title>文档icon</title>
    <g id="门户" stroke="none" stroke-width="1" fill="none" fill-rule="evenodd">
        <g id="左导航设计规范" transform="translate(-981.000000, -248.000000)" fill="#333333" fill-rule="nonzero">
            <g id="文档icon" transform="translate(979.000000, 247.000000)">
                <path d="M8.88235294,1 L14,6.075 L13.999,6.074 L14,6.075 L14,13.95 C14,14.52925 13.5252941,15 12.9411765,15 L12.9411765,15 L3.05882353,15 C2.47470588,15 2,14.52925 2,13.95 L2,13.95 L2,2.05 C2,1.47075 2.47470588,1 3.05882353,1 L3.05882353,1 L8.88235294,1 Z M8.44294118,2.05 L3.58823529,2.05 C3.29529412,2.05 3.05882353,2.2845 3.05882353,2.575 L3.05882353,2.575 L3.05882353,13.425 C3.05882353,13.7155 3.29529412,13.95 3.58823529,13.95 L3.58823529,13.95 L12.4117647,13.95 C12.7047059,13.95 12.9411765,13.7155 12.9411765,13.425 L12.9411765,13.425 L12.9411765,6.72775 C12.9411765,6.5895 12.8847059,6.45475 12.7858824,6.35675 L12.7858824,6.35675 L12.501,6.074 L9.41176471,6.075 C9.15137255,6.075 8.93559913,5.88971605 8.8908642,5.6445144 L8.88235294,5.55 L8.882,2.485 L8.44294118,2.05 Z M11.3352941,10.275 C11.6282353,10.275 11.8647059,10.5095 11.8647059,10.8 C11.8647059,11.0905 11.6282353,11.325 11.3352941,11.325 L4.62941176,11.325 C4.33647059,11.325 4.1,11.0905 4.1,10.8 C4.1,10.5095 4.33647059,10.275 4.62941176,10.275 L11.3352941,10.275 Z M11.3352941,8.175 C11.6282353,8.175 11.8647059,8.4095 11.8647059,8.7 C11.8647059,8.9905 11.6282353,9.225 11.3352941,9.225 L4.62941176,9.225 C4.33647059,9.225 4.1,8.9905 4.1,8.7 C4.1,8.4095 4.33647059,8.175 4.62941176,8.175 L11.3352941,8.175 Z M7.26764706,6.075 C7.56058824,6.075 7.79705882,6.3095 7.79705882,6.6 C7.79705882,6.8905 7.56058824,7.125 7.26764706,7.125 L4.62058824,7.125 C4.32764706,7.125 4.09117647,6.8905 4.09117647,6.6 C4.09117647,6.3095 4.32764706,6.075 4.62058824,6.075 L7.26764706,6.075 Z M9.941,3.536 L9.94117647,5.025 L11.4429412,5.025 L10.539,4.129 L9.941,3.536 Z" id="形状结合"></path>
            </g>
        </g>
    </g>
</svg>