<?xml version="1.0" encoding="UTF-8"?>
<svg width="16px" height="14px" viewBox="0 0 16 14" version="1.1" xmlns="http://www.w3.org/2000/svg" xmlns:xlink="http://www.w3.org/1999/xlink">
    <title>监控平台icon</title>
    <g id="门户" stroke="none" stroke-width="1" fill="none" fill-rule="evenodd">
        <g id="左导航设计规范" transform="translate(-770.000000, -523.000000)" fill="#666666" fill-rule="nonzero">
            <g id="监控平台icon" transform="translate(770.000000, 522.000000)">
                <path d="M13.8666624,1 L2.13333267,1 C0.959463689,1 0,1.92266076 0,3.04844461 L0,10.9013894 C0,12.0288946 0.959463689,12.949834 2.13333267,12.949834 L7.46666435,12.949834 L7.46666435,13.9740563 L5.51200276,13.9740563 C5.22791574,13.9740563 4.97777623,14.2133284 4.97777623,14.4870282 C4.97777623,14.7607279 5.22612903,15 5.51200276,15 L10.489779,15 C10.773866,15 11.0240055,14.7607279 11.0240055,14.4870282 C11.0240055,14.2133284 10.7756527,13.9740563 10.489779,13.9740563 L8.53333068,13.9740563 L8.53333068,12.949834 L13.8666624,12.949834 C15.0405313,12.949834 16,12.0288946 16,10.9013894 L16,3.04844461 C16.0017817,1.92093938 15.0405313,1 13.8666624,1 Z M14.9351154,10.9013894 C14.9351154,11.4814951 14.4723573,11.9256117 13.8684491,11.9256117 L2.13333267,11.9256117 C1.52763772,11.9256117 1.06666634,11.4814951 1.06666634,10.9013894 L1.06666634,3.04844461 C1.06666634,2.46833887 1.52942443,2.0242223 2.13333267,2.0242223 L13.8666624,2.0242223 C14.4705706,2.0242223 14.9333287,2.46833887 14.9333287,3.04844461 L14.9333287,10.9013894 L14.9351154,10.9013894 Z M12.8714645,5.06246158 L10.0270209,8.81851715 C9.91981825,8.95450633 9.7786681,9.02336161 9.59999702,9.02336161 C9.42132594,9.02336161 9.28017579,8.92007869 9.17297314,8.78408951 L6.75555346,5.33616132 L3.98257833,9.46747818 C3.87537568,9.60346736 3.69849131,9.70675028 3.51982024,9.70675028 C3.41261759,9.70675028 3.30720165,9.67232264 3.23573322,9.637895 C2.98738042,9.50190582 2.91591199,9.15935079 3.05706214,8.92007869 L6.25706115,4.13980081 C6.3642638,4.00381163 6.50541395,3.90052871 6.68408503,3.90052871 C6.86275611,3.90052871 7.03964047,3.96938399 7.1111089,4.13980081 L9.52852859,7.62215665 L11.9120008,4.44792819 C12.0888851,4.20865609 12.4087064,4.17422845 12.6588459,4.34464527 C13.0144013,4.51678347 13.0501355,4.82318947 12.8714645,5.06246158 Z" id="形状"></path>
            </g>
        </g>
    </g>
</svg>