<?xml version="1.0" encoding="UTF-8"?>
<svg width="16px" height="16px" viewBox="0 0 16 16" version="1.1" xmlns="http://www.w3.org/2000/svg" xmlns:xlink="http://www.w3.org/1999/xlink">
    <title>ES icon</title>
    <g id="门户" stroke="none" stroke-width="1" fill="none" fill-rule="evenodd">
        <g id="左导航设计规范" transform="translate(-769.000000, -443.000000)" fill="#666666" fill-rule="nonzero">
            <g id="ES-icon" transform="translate(769.000000, 443.000000)">
                <path d="M13.4639285,9.15796077 C14.5363743,10.2304065 14.6593336,11.891563 13.8306052,13.0919109 L16,15.2713798 L15.2744301,16 L13.1127887,13.8294845 C11.9078399,14.7111396 10.203457,14.6043281 9.1105091,13.5113802 C7.9032916,12.3041627 7.89919459,10.3509734 9.10135818,9.14880985 C10.3035218,7.94664626 12.256711,7.95074327 13.4639285,9.15796077 Z M6.66886521,8.24339672 L6.66886521,11.5914467 C6.66886521,13.4407449 5.17598888,14.9398973 3.33443261,14.9398973 C1.49287633,14.9398973 4.55635529e-13,13.4407449 4.55635529e-13,11.5914467 C4.55635529e-13,9.74236973 1.4926977,8.24339672 3.33403361,8.24339672 L3.33403361,8.24339672 L6.66886521,8.24339672 Z M9.82997839,9.87743006 C9.028536,10.6788724 9.03126734,11.9809986 9.83607901,12.7858103 C10.6408907,13.590622 11.9430169,13.5933533 12.7444593,12.7919109 C13.5459016,11.9904685 13.5431703,10.6883423 12.7383586,9.88353068 C11.933547,9.07871901 10.6314208,9.07598767 9.82997839,9.87743006 Z M3.33461534,7.25641769e-13 C5.17608039,7.25641769e-13 6.66900631,1.4988434 6.66944695,3.34804995 L6.66944695,3.34804995 L6.66944695,6.69609989 L3.33381735,6.69609989 C1.49256589,6.69597995 -2.26485497e-13,5.19704206 -2.26485497e-13,3.34804994 C-2.26485497e-13,1.49905783 1.49256589,0.000119937557 3.33381735,7.25641769e-13 L3.33381735,7.25641769e-13 Z M11.543718,5.64881475e-13 C13.3854946,5.64881475e-13 14.8785496,1.49933175 14.8785496,3.34885122 C14.8785496,5.19792815 13.3858519,6.69690116 11.544516,6.69690116 L11.544516,6.69690116 L8.20888642,6.69690116 L8.20888642,3.34885122 C8.20888642,1.49933175 9.70194141,5.64881475e-13 11.543718,5.64881475e-13 Z" id="形状结合"></path>
            </g>
        </g>
    </g>
</svg>