<?xml version="1.0" encoding="UTF-8"?>
<svg width="16px" height="16px" viewBox="0 0 16 16" version="1.1" xmlns="http://www.w3.org/2000/svg" xmlns:xlink="http://www.w3.org/1999/xlink">
    <title>Kafka和管理 icon</title>
    <g id="门户" stroke="none" stroke-width="1" fill="none" fill-rule="evenodd">
        <g id="左导航设计规范" transform="translate(-770.000000, -243.000000)" fill="#666666" fill-rule="nonzero">
            <g id="Kafka和管理-icon" transform="translate(770.000000, 243.000000)">
                <path d="M3.86150425,7.16212781 L3.9593291,7.21110384 L6.79369814,8.92047574 C6.98086682,9.03259384 7.08037627,9.22472511 7.10498778,9.44036812 L7.11111111,9.54988736 L7.11111111,12.9684374 C7.11111111,13.1903482 7.03722691,13.3980217 6.87860545,13.5353227 L6.79218304,13.597849 L3.97391191,15.3072209 C3.86255223,15.3740765 3.73490525,15.4074074 3.61028846,15.4074074 C3.51682587,15.4074074 3.41974125,15.3886588 3.33014038,15.3510797 L3.24344543,15.3072209 L0.378585041,13.597849 C0.191254031,13.4857309 0.0469177835,13.2935996 0.00950193751,13.0779566 L3.8191672e-13,12.9684374 L3.8191672e-13,9.54988736 C3.8191672e-13,9.32797658 0.114374417,9.12016064 0.284564504,8.98294097 L0.374039748,8.92047574 L3.24742256,7.21110384 C3.43816254,7.09682643 3.66146166,7.08050109 3.86150425,7.16212781 Z M12.0907543,7.21110342 C12.3124831,7.07778034 12.5873903,7.07778034 12.8091191,7.21110342 L12.8091191,7.21110342 L15.6566316,8.92047541 C15.8750009,9.05127986 16.0001892,9.29099114 16,9.54988706 L16,9.54988706 L16,12.9684372 C16,13.2273332 15.8748115,13.4668507 15.6564422,13.5978489 L15.6564422,13.5978489 L12.8136645,15.3072209 C12.7024913,15.3740765 12.5778712,15.4074074 12.4534405,15.4074074 C12.3290098,15.4074074 12.2043897,15.3740765 12.0932164,15.3072209 L12.0932164,15.3072209 L9.24134787,13.5978489 C9.02278921,13.4670444 8.88888889,13.2273332 8.88888889,12.9684372 L8.88888889,12.9684372 L8.88888889,9.54988706 C8.88888889,9.29099114 9.02184225,9.05147365 9.24021152,8.92047541 L9.24021152,8.92047541 Z M3.602,8.16296296 L1,9.71096296 L1,12.804963 L3.607,14.359963 L6.111,12.840963 L6.111,9.67596296 L3.602,8.16296296 Z M8.13151072,0.0510155089 L8.22822556,0.0999903975 L11.0223295,1.80932237 C11.2135684,1.92394314 11.2515386,2.12179539 11.258043,2.34290348 L11.2592593,5.85757701 C11.2592593,6.08410564 11.2399738,6.29594637 11.0888621,6.43299375 L11.0157008,6.48697393 L8.27311153,8.19611212 C8.16174888,8.26296616 8.02406071,8.2962963 7.8994406,8.2962963 C7.80597552,8.2962963 7.6975958,8.2775481 7.60234629,8.23996995 L7.51251222,8.19611212 L4.60723498,6.48697393 C4.41599615,6.37235315 4.20793692,6.17450091 4.15891022,5.95339281 L4.14814815,5.85738323 L4.14814815,2.43891307 C4.14814815,2.21221488 4.32128226,2.00050132 4.51085615,1.86335856 L4.59265178,1.80932237 L7.53656504,0.0999903975 C7.72714776,-0.0142843425 7.93568023,-0.0306093054 8.13151072,0.0510155089 Z M7.878,1.05696296 L5.148,2.64296296 L5.148,5.64496296 L7.888,7.25696296 L10.259,5.77996296 L10.259,2.51496296 L7.878,1.05696296 Z" id="形状结合"></path>
            </g>
        </g>
    </g>
</svg>