<?xml version="1.0" encoding="UTF-8"?>
<svg width="14px" height="14px" viewBox="0 0 14 14" version="1.1" xmlns="http://www.w3.org/2000/svg" xmlns:xlink="http://www.w3.org/1999/xlink">
    <title>退出登录 icon</title>
    <g id="门户" stroke="none" stroke-width="1" fill="none" fill-rule="evenodd">
        <g id="左导航设计规范" transform="translate(-980.000000, -458.000000)" fill="#333333">
            <g id="退出登录-icon" transform="translate(980.000000, 458.000000)">
                <path d="M4.33339317,1.03536725 C4.59007644,0.933542362 4.88070473,1.05907989 4.98252962,1.31576317 C5.0843545,1.57244644 4.95881697,1.86307473 4.7021337,1.96489961 C2.47727321,2.8474899 1,4.92744004 1,7.26472934 C1,10.4275499 3.68174965,13.0001334 7,13.0001334 C10.3182504,13.0001334 13,10.4275499 13,7.26472934 C13,4.94010249 11.5387343,2.86927935 9.33183482,1.97849251 C9.07576549,1.87513339 8.9519694,1.58375905 9.05532853,1.32768972 C9.15868765,1.07162039 9.45006198,0.947824306 9.70613132,1.05118343 C12.2837276,2.09159732 14,4.5238015 14,7.26472934 C14,10.9893459 10.8614514,14.0001334 7,14.0001334 C3.13854861,14.0001334 0,10.9893459 0,7.26472934 C0,4.50891348 1.73495736,2.06615287 4.33339317,1.03536725 Z" id="路径" fill-rule="nonzero"></path>
                <path d="M7.02499021,0.0080091593 C7.30113259,0.0080091593 7.52499021,0.231866784 7.52499021,0.508009159 L7.52499021,7.50800916 C7.52499021,7.78415153 7.30113259,8.00800916 7.02499021,8.00800916 C6.74884784,8.00800916 6.52499021,7.78415153 6.52499021,7.50800916 L6.52499021,0.508009159 C6.52499021,0.231866784 6.74884784,0.0080091593 7.02499021,0.0080091593 Z" id="矩形"></path>
            </g>
        </g>
    </g>
</svg>