<?xml version="1.0" encoding="UTF-8"?>
<svg width="15px" height="16px" viewBox="0 0 15 16" version="1.1" xmlns="http://www.w3.org/2000/svg" xmlns:xlink="http://www.w3.org/1999/xlink">
    <title>消息icon</title>
    <g id="门户" stroke="none" stroke-width="1" fill="none" fill-rule="evenodd">
        <g id="左导航设计规范" transform="translate(-979.000000, -205.000000)" fill-rule="nonzero" stroke="#333333">
            <g id="消息icon" transform="translate(979.000000, 205.000000)">
                <path d="M6.46936694,14.5660028 C6.55918323,14.7708476 6.69804986,14.9524314 6.87787937,15.0983936 C7.18606312,15.3485372 7.60881726,15.492798 8.10613314,15.4939732 C8.48067363,15.4616406 8.8178731,15.300242 9.04709345,15.0344531 C9.15972622,14.9038515 9.24461222,14.7487464 9.29591945,14.5741114 L9.14581401,14.5930808 C9.06443428,14.7570719 8.95034766,14.9030309 8.81125732,15.022373 C8.58034672,15.2204986 8.28081451,15.3451651 7.95103915,15.3560415 L7.93463373,15.3564878 L7.91809829,15.3560422 C7.43168919,15.3400217 6.98980785,15.0807849 6.46936694,14.5660028 Z M7.79771821,0.506410124 C7.59564904,0.531102013 7.41559117,0.62603843 7.28544506,0.765890499 C7.15720309,0.903696436 7.0777541,1.08579744 7.0777541,1.69892637 L6.49593586,1.86494804 C5.53232232,2.1617302 4.66338613,2.7521764 4.04442279,3.50458368 C3.46258069,4.21186666 3.10029767,5.06432056 3.10029767,5.95287143 L3.0932677,10.516892 C3.05249529,11.1767776 2.84184422,11.6738829 2.58185812,12.0463599 C2.15271392,12.6611865 1.57974782,12.9381321 1.42163872,13.2157274 L14.4718695,13.0305315 C14.2313758,12.9339081 13.6114033,12.6333555 13.1768318,11.9516801 C12.9187181,11.5467991 12.7216103,11.0058116 12.7216103,10.2860472 L12.7161477,5.76385218 C12.6649181,4.87598422 12.2585213,4.03305909 11.6401517,3.34468417 C10.9887299,2.6195154 10.1001457,2.06371152 9.11710416,1.80520332 L8.73885765,1.19551309 C8.71553916,1.0023494 8.61769674,0.831494306 8.47505815,0.708022053 C8.31845395,0.572460746 8.10663726,0.505383649 7.79771821,0.506410124 Z" id="形状结合"></path>
            </g>
        </g>
    </g>
</svg>