<?xml version="1.0" encoding="UTF-8"?>
<svg width="14px" height="14px" viewBox="0 0 14 14" version="1.1" xmlns="http://www.w3.org/2000/svg" xmlns:xlink="http://www.w3.org/1999/xlink">
    <title>修改密码icon</title>
    <g id="门户" stroke="none" stroke-width="1" fill="none" fill-rule="evenodd">
        <g id="左导航设计规范" transform="translate(-980.000000, -332.000000)" fill="#333333" fill-rule="nonzero">
            <g id="修改密码icon" transform="translate(980.000000, 332.000000)">
                <path d="M6.65077601,0 C8.59419077,0 10.2649376,1.23388224 10.9999851,3.00087433 L9.93582081,3.0010487 C9.27757693,1.80661505 8.0528806,1.0038036 6.65077601,1.0038036 C4.88566915,1.0038036 3.40172326,2.27611889 2.97513308,4.00037235 L12,4 C13.1045695,4 14,4.8954305 14,6 L14,12 C14,13.1045695 13.1045695,14 12,14 L2,14 C0.8954305,14 0,13.1045695 0,12 L0,6 C0,4.8954305 0.8954305,4 2,4 L1.99709383,4.01501039 C2.43715598,1.72419098 4.35345692,0 6.65077601,0 Z M12,5 L2,5 C1.48716416,5 1.06449284,5.38604019 1.00672773,5.88337887 L1,6 L1,12 C1,12.5128358 1.38604019,12.9355072 1.88337887,12.9932723 L2,13 L12,13 C12.5128358,13 12.9355072,12.6139598 12.9932723,12.1166211 L13,12 L13,6 C13,5.48716416 12.6139598,5.06449284 12.1166211,5.00672773 L12,5 Z M6.5,6 C7.32842712,6 8,6.67157288 8,7.5 C8,8.1528467 7.58293192,8.70828193 7.00070296,8.91439849 L7,11.5 C7,11.7761424 6.77614237,12 6.5,12 C6.22385763,12 6,11.7761424 6,11.5 L6.00029246,8.91475048 C5.41754351,8.70891488 5,8.15321869 5,7.5 C5,6.67157288 5.67157288,6 6.5,6 Z M6.5,7 C6.22385763,7 6,7.22385763 6,7.5 C6,7.77614237 6.22385763,8 6.5,8 C6.77614237,8 7,7.77614237 7,7.5 C7,7.22385763 6.77614237,7 6.5,7 Z" id="形状结合"></path>
            </g>
        </g>
    </g>
</svg>