<?xml version="1.0" encoding="UTF-8"?>
<svg width="16px" height="16px" viewBox="0 0 16 16" version="1.1" xmlns="http://www.w3.org/2000/svg" xmlns:xlink="http://www.w3.org/1999/xlink">
    <title>数据库MongoDB icon</title>
    <g id="门户" stroke="none" stroke-width="1" fill="none" fill-rule="evenodd">
        <g id="左导航设计规范" transform="translate(-770.000000, -402.000000)" fill="#666666" fill-rule="nonzero">
            <g id="数据库MongoDB-icon" transform="translate(770.000000, 402.000000)">
                <g id="编组-29">
                    <path d="M6.43014559,-2.82263102e-12 C9.59723223,-2.82263102e-12 12.8027078,0.843835617 12.8027078,2.43561644 C12.8027078,2.55068492 12.7835133,2.64657534 12.7643189,2.76164383 L12.7643189,2.76164383 L12.764,7 L11.862,7 L11.862179,6.7890411 L11.8429846,6.7890411 C11.8045956,6.80821918 11.7470122,6.82739725 11.7086233,6.84657534 C11.6894289,6.84657534 11.6894289,6.86575343 11.6702344,6.86575343 C11.612651,6.88493151 11.5550676,6.92328767 11.4974842,6.94246576 C11.4782897,6.94246574 11.4590953,6.96164383 11.4399008,6.96164383 L11.4399008,6.96164383 L11.349,7 L10,7 C9.59661555,7 9.24901607,7.23884386 9.09090635,7.58282682 L8.99722749,7.59523084 L8.99722749,7.59523084 L8.88703704,7.61369863 L8.84864811,7.61369863 C8.71428686,7.6328767 8.59912007,7.6328767 8.46475882,7.65205479 C8.42636989,7.67123287 8.38798095,7.67123287 8.34959203,7.67123287 C8.25361972,7.67123287 8.1576474,7.69041096 8.06167507,7.69041096 C8.00409168,7.70958904 7.96570275,7.70958904 7.90811936,7.70958904 C7.81214703,7.70958903 7.71617472,7.72876712 7.62020239,7.72876712 L7.62020239,7.72876712 L7.4474522,7.72876712 C7.35147989,7.7479452 7.23631311,7.7479452 7.14034078,7.7479452 L5.85431165,7.7479452 C5.73914487,7.72876712 5.62397809,7.72876712 5.52800576,7.72876712 L5.52800576,7.72876712 L5.35525558,7.72876712 C5.25928325,7.72876713 5.16331094,7.70958904 5.06733861,7.70958904 C5.00975522,7.69041096 4.97136628,7.69041096 4.91378289,7.69041096 C4.81781058,7.69041096 4.70264379,7.69041096 4.60667147,7.67123287 C4.56828253,7.65205479 4.52989359,7.65205479 4.49150467,7.65205479 C4.35714342,7.65205479 4.24197664,7.63287671 4.10761539,7.61369863 C4.06922645,7.59452054 4.05003198,7.59452054 4.01164306,7.59452054 C3.9348652,7.57534247 3.83889289,7.57534247 3.74292056,7.55616438 C3.68533717,7.55616438 3.64694823,7.5369863 3.60855931,7.5369863 L3.60855931,7.5369863 L3.37822573,7.49863014 C3.32064234,7.49863014 3.28225341,7.47945205 3.24386448,7.47945205 C3.16708663,7.47945205 3.10950323,7.46027398 3.03272538,7.44109589 C2.99433645,7.44109589 2.95594752,7.42191781 2.91755859,7.42191781 C2.84078075,7.40273972 2.74480842,7.38356165 2.66803056,7.36438356 L2.66803056,7.36438356 L2.62964162,7.36438356 C2.53366931,7.34520548 2.45689145,7.30684932 2.36091912,7.28767123 C2.32253019,7.28767123 2.30333572,7.26849315 2.2649468,7.26849315 L2.2649468,7.26849315 L2.09219662,7.2109589 L2.09219662,7.2109589 L1.9962243,7.17260273 C1.93864091,7.15342465 1.90025197,7.13424657 1.84266858,7.11506849 C1.80427966,7.09589042 1.76589073,7.09589042 1.74669627,7.07671233 C1.68911287,7.05753424 1.65072394,7.03835617 1.59314055,7.01917809 L1.59314055,7.01917809 L1.53555716,7 L1.53555716,7 L1.3436125,6.92328767 C1.32441805,6.92328767 1.32441805,6.90410958 1.30522358,6.90410958 C1.26683466,6.8849315 1.20925125,6.86575343 1.17086233,6.84657534 C1.15166786,6.84657534 1.13247341,6.82739725 1.11327894,6.82739725 L1.11327894,6.82739725 L0.998112142,6.76986301 C0.978917687,6.76986301 0.959723219,6.75068492 0.959723219,6.75068492 L0.959723219,6.75068492 L0.959723219,8.64931506 C0.959723219,8.66849315 0.978917687,8.66849315 0.978917687,8.66849315 C0.978917673,8.68767123 0.998112142,8.68767123 0.998112142,8.68767123 C1.01730661,8.68767122 1.01730661,8.70684931 1.03650108,8.70684931 C1.03650108,8.72602739 1.05569555,8.72602739 1.05569555,8.72602739 C1.09408447,8.74520548 1.13247341,8.76438356 1.1900568,8.80273972 C1.19005678,8.82191781 1.20925125,8.82191781 1.20925125,8.82191781 C1.22844572,8.84109589 1.24764019,8.86027398 1.24764019,8.84109589 L1.24764019,8.84109589 L1.26683466,8.86027397 L1.26683466,8.86027397 L1.32441805,8.89863014 C1.3436125,8.89863012 1.3436125,8.91780821 1.36280697,8.91780821 C1.38200144,8.9369863 1.42039036,8.9369863 1.43958483,8.95616438 C1.43958483,8.97534247 1.4587793,8.97534247 1.4587793,8.97534247 L1.4587793,8.97534247 L1.57394608,9.03287671 L1.68911286,9.09041096 C1.70830733,9.09041096 1.70830733,9.10958904 1.7275018,9.10958904 L1.7275018,9.10958904 L1.82347412,9.1479452 C1.82347412,9.1479452 1.84266858,9.16712329 1.86186305,9.16712329 C1.88105752,9.18630136 1.91944645,9.18630136 1.95783537,9.20547945 C1.97702984,9.20547945 1.9962243,9.22465753 2.01541877,9.22465753 C2.05380769,9.22465753 2.09219662,9.2438356 2.13058555,9.26301369 C2.14978002,9.28219178 2.14978002,9.28219178 2.16897448,9.28219178 L2.16897448,9.28219178 L2.34172466,9.33972602 L2.38011359,9.33972602 C2.43769697,9.33972603 2.47608591,9.35890411 2.5336693,9.37808219 C2.55286378,9.37808219 2.57205823,9.39726028 2.5912527,9.39726028 L2.5912527,9.39726028 L2.72561395,9.43561644 C2.76400289,9.43561644 2.78319734,9.45479452 2.80239181,9.45479452 C2.84078073,9.47397259 2.89836414,9.47397259 2.93675306,9.49315068 C2.975142,9.49315068 2.99433645,9.51232877 3.01353092,9.51232877 C3.07111431,9.53150684 3.1286977,9.53150684 3.18628109,9.55068492 C3.18628111,9.56986301 3.20547556,9.56986301 3.22467003,9.56986301 C3.30144788,9.56986302 3.37822573,9.5890411 3.45500359,9.60821918 C3.47419806,9.62739725 3.49339252,9.62739725 3.51258698,9.62739725 L3.51258698,9.62739725 L3.70453164,9.66575343 C3.74292056,9.6849315 3.76211503,9.6849315 3.80050395,9.6849315 C3.85808736,9.6849315 3.91567075,9.70410958 3.97325414,9.70410958 C4.01164308,9.72328767 4.03083754,9.72328767 4.06922647,9.72328767 C4.12680986,9.72328767 4.20358772,9.74246576 4.26117111,9.74246576 C4.29956003,9.76164383 4.3187545,9.76164383 4.35714342,9.76164383 C4.43392128,9.76164383 4.52989361,9.78082191 4.60667147,9.78082191 L4.60667147,9.78082191 L4.64506039,9.78082191 C4.74103272,9.78082191 4.8561995,9.8 4.95217183,9.8 L4.95217183,9.8 L5.04814415,9.8 L5.04814415,9.8 L5.27847772,9.81917809 L5.39364451,9.81917809 C5.4512279,9.83835616 5.52800576,9.83835616 5.60478362,9.83835616 L5.60478362,9.83835616 L7.29389648,9.83835616 C7.37067434,9.81917809 7.42825773,9.81917809 7.50503559,9.81917809 L7.62020239,9.81917809 C7.67778578,9.81917809 7.75456364,9.8 7.8313415,9.8 L7.8313415,9.8 L7.92731381,9.8 C8.02328614,9.8 8.11925845,9.78082191 8.21523078,9.78082191 L8.21523078,9.78082191 L8.31617945,9.78011161 C8.37305194,9.77869102 8.43276805,9.77442922 8.48395329,9.76164383 C8.52234222,9.74246576 8.54153668,9.74246576 8.57992561,9.74246576 C8.63750901,9.74246576 8.6950924,9.72328767 8.75267579,9.72328767 C8.79106472,9.70410958 8.81025918,9.70410958 8.84864811,9.70410958 C8.88703704,9.70410958 8.94462043,9.6849315 9.00220383,9.6849315 L9,9.684 L9.0012954,10.5980939 C8.98241842,10.6005411 8.96325771,10.6032718 8.94390953,10.6061897 L8.82945365,10.6246575 L8.79106472,10.6246575 C8.65670347,10.6438356 8.54153668,10.6438356 8.40717543,10.6630137 C8.3687865,10.6821918 8.33039756,10.6821918 8.29200864,10.6821918 C8.19603631,10.6821918 8.100064,10.7013699 8.00409167,10.7013699 C7.94650829,10.7205479 7.90811936,10.7205479 7.85053597,10.7205479 C7.75456364,10.7205479 7.65859132,10.739726 7.562619,10.739726 L7.562619,10.739726 L7.40906328,10.739726 C7.31309095,10.7589041 7.21711862,10.7589041 7.10195184,10.7589041 L5.81592273,10.7589041 C5.70075594,10.739726 5.58558915,10.739726 5.48961683,10.739726 L5.48961683,10.739726 L5.31686665,10.739726 C5.22089433,10.739726 5.12492201,10.7205479 5.02894969,10.7205479 C4.97136629,10.7013699 4.93297736,10.7013699 4.87539397,10.7013699 C4.77942164,10.7013699 4.66425486,10.7013699 4.56828253,10.6821918 C4.52989361,10.6630137 4.49150467,10.6630137 4.45311575,10.6630137 C4.3187545,10.6630137 4.20358772,10.6438356 4.06922647,10.6246575 C4.03083753,10.6054794 4.01164306,10.6054794 3.97325414,10.6054794 L3.97325414,10.6054794 L3.68533717,10.5671233 C3.64694825,10.5671233 3.60855931,10.5479452 3.57017039,10.5479452 C3.49339253,10.5287671 3.41661467,10.5287671 3.33983681,10.509589 C3.30144789,10.509589 3.26305895,10.490411 3.22467003,10.490411 C3.14789217,10.4904109 3.09030878,10.4712329 3.01353092,10.4520548 C2.99433645,10.4520548 2.95594752,10.4328767 2.91755859,10.4328767 C2.82158628,10.4136986 2.72561395,10.3945206 2.64883609,10.3753425 L2.64883609,10.3753425 L2.61044716,10.3753425 C2.49528037,10.3561644 2.41850252,10.3178082 2.32253019,10.2986301 C2.30333573,10.2986301 2.26494681,10.2794521 2.24575234,10.2794521 L2.24575234,10.2794521 L2.07300216,10.2219178 L2.07300216,10.2219178 L1.97702983,10.1835616 C1.91944645,10.1643836 1.88105752,10.1452055 1.82347412,10.1260274 C1.80427966,10.1260274 1.76589073,10.1260274 1.74669627,10.1068493 C1.68911287,10.0876712 1.65072394,10.0684931 1.59314055,10.0493151 C1.57394608,10.0493151 1.55475162,10.030137 1.53555716,10.030137 C1.47797375,10.0109589 1.40119589,9.97260275 1.3436125,9.95342466 C1.32441805,9.95342466 1.32441805,9.93424657 1.30522358,9.93424657 C1.24764019,9.91506849 1.19005678,9.89589042 1.15166786,9.87671233 C1.13247339,9.87671233 1.11327894,9.85753424 1.09408447,9.85753424 C1.05569553,9.83835616 1.01730661,9.81917809 0.998112142,9.8 C0.998112155,9.78082191 0.978917687,9.78082191 0.978917687,9.78082191 L0.978917687,9.78082191 L0.978917687,11.6219178 C1.40119591,11.9287671 2.91755859,12.7917808 6.48772898,12.7917808 C7.48744067,12.7917808 8.31676079,12.7233784 9.00053126,12.6186692 L9.00072761,13.5921603 C8.29613857,13.6900397 7.46517484,13.7506849 6.48772898,13.7506849 C1.66991841,13.7506849 0.191944641,12.2356164 0.13436125,12.1780822 C0.0383889227,12.0821918 -1.69286807e-12,11.9671233 -1.69286807e-12,11.8520548 L-1.69286807e-12,11.8520548 L-1.69286807e-12,2.43561644 C-1.69286807e-12,2.33972603 0.0191944682,2.24383562 0.0767778592,2.16712329 C0.422278219,0.747945201 3.43580914,-2.82263102e-12 6.43014559,-2.82263102e-12 Z M0.959723219,3.73972602 L0.959723219,5.61917809 L0.978917687,5.61917809 L0.998112142,5.63835616 C1.01730661,5.63835616 1.01730661,5.65753424 1.03650108,5.65753424 L1.03650108,5.65753424 L1.05569555,5.67671233 C1.07489001,5.6958904 1.09408447,5.6958904 1.11327894,5.71506849 C1.11327892,5.73424657 1.13247339,5.73424657 1.13247339,5.73424657 L1.13247339,5.73424657 L1.1900568,5.77260273 L1.20925125,5.79178082 C1.22844572,5.79178082 1.24764019,5.8109589 1.17086233,5.84931506 C1.19005678,5.84931506 1.19005678,5.86849315 1.20925125,5.86849315 C1.22844573,5.88767122 1.24764019,5.88767122 1.26683466,5.90684931 C1.28602911,5.90684931 1.28602911,5.92602739 1.30522358,5.92602739 C1.34361251,5.94520548 1.36280697,5.94520548 1.38200144,5.96438356 C1.40119589,5.96438355 1.40119589,5.98356164 1.42039036,5.98356164 L1.42039036,5.98356164 L1.53555716,6.04109589 L1.55475161,6.04109589 C1.57394608,6.04109589 1.61233501,6.06027397 1.65072394,6.07945205 C1.65072394,6.07945205 1.66991839,6.09863014 1.68911286,6.09863014 L1.68911286,6.09863014 L1.78508519,6.1369863 C1.80427966,6.1369863 1.82347411,6.15616438 1.84266858,6.15616438 L1.84266858,6.15616438 L1.93864091,6.19452054 C1.95783537,6.19452054 1.97702983,6.21369863 1.9962243,6.21369863 C2.03461322,6.2328767 2.07300216,6.2328767 2.11139108,6.25205479 C2.11139109,6.25205479 2.13058555,6.27123287 2.14978002,6.27123287 L2.14978002,6.27123287 L2.32253019,6.32876712 C2.34172466,6.3479452 2.34172466,6.3479452 2.36091912,6.3479452 C2.39930805,6.36712329 2.43769698,6.36712329 2.49528037,6.38630137 C2.51447484,6.38630136 2.5336693,6.40547945 2.55286377,6.40547945 C2.59125269,6.42465753 2.64883609,6.42465753 2.68722502,6.44383562 C2.70641948,6.4438356 2.74480841,6.46301369 2.76400287,6.46301369 L2.76400287,6.46301369 L2.89836412,6.50136986 C2.91755859,6.50136986 2.95594752,6.52054795 2.97514198,6.52054795 L2.97514198,6.52054795 L3.14789217,6.55890411 C3.16708664,6.57808219 3.18628109,6.57808219 3.20547556,6.57808219 C3.28225342,6.57808219 3.35903128,6.59726026 3.43580914,6.61643835 C3.45500361,6.63561644 3.47419806,6.63561644 3.49339253,6.63561644 C3.57017039,6.65479451 3.62775378,6.65479451 3.68533717,6.67397259 C3.72372611,6.69315068 3.74292058,6.69315068 3.7813095,6.69315068 C3.83889289,6.69315068 3.89647628,6.71232877 3.95405967,6.71232877 C3.99244861,6.73150685 4.01164308,6.73150685 4.050032,6.73150685 C4.12680986,6.73150684 4.18439325,6.75068492 4.24197664,6.75068492 C4.28036558,6.76986301 4.29956004,6.76986301 4.33794897,6.76986301 L4.33794897,6.76986301 L4.587477,6.7890411 L4.62586594,6.7890411 C4.72183825,6.7890411 4.83700503,6.80821918 4.93297736,6.80821918 L4.93297736,6.80821918 L5.02894969,6.80821918 C5.10572754,6.80821917 5.1825054,6.82739725 5.25928326,6.82739725 L5.25928326,6.82739725 L5.37445005,6.82739725 C5.43203344,6.84657534 5.5088113,6.84657534 5.58558915,6.84657534 L5.58558915,6.84657534 L7.27470203,6.84657534 C7.35147989,6.82739725 7.40906328,6.82739725 7.48584114,6.82739725 L7.48584114,6.82739725 L7.60100792,6.82739725 C7.67778578,6.82739727 7.73536917,6.80821918 7.81214703,6.80821918 L7.81214703,6.80821918 L7.90811936,6.80821918 C8.02328614,6.80821918 8.11925845,6.7890411 8.21523078,6.7890411 L8.21523078,6.7890411 L8.23442525,6.7890411 C8.33039756,6.7890411 8.42636989,6.7890411 8.50314775,6.76986301 C8.54153668,6.75068492 8.56073115,6.75068492 8.59912007,6.75068492 C8.65670347,6.75068494 8.71428686,6.73150685 8.77187025,6.73150685 C8.81025918,6.71232877 8.82945365,6.71232877 8.86784258,6.71232877 C8.90623151,6.71232877 8.9638149,6.69315068 9.02139829,6.69315068 L9.02139829,6.69315068 L9.11737061,6.67397259 C9.17495401,6.65479452 9.2325374,6.65479452 9.29012079,6.63561644 C9.30931526,6.61643835 9.34770418,6.61643835 9.36689865,6.61643835 C9.44367651,6.61643835 9.52045437,6.59726028 9.59723223,6.57808219 L9.59723223,6.57808219 L9.63562115,6.57808219 C9.69320456,6.55890411 9.75078795,6.55890411 9.80837134,6.53972602 C9.84676028,6.53972603 9.86595473,6.52054795 9.8851492,6.52054795 C9.94273259,6.50136986 9.98112153,6.50136986 10.0195104,6.48219178 C10.0387049,6.48219178 10.0770938,6.46301369 10.0962883,6.46301369 C10.1346772,6.44383562 10.1730662,6.44383562 10.2114551,6.42465753 C10.249844,6.42465753 10.2690385,6.40547945 10.2882329,6.40547945 C10.3266219,6.38630137 10.3650108,6.38630137 10.4033997,6.36712329 C10.4225942,6.36712329 10.4417887,6.3479452 10.4609831,6.3479452 C10.5185665,6.32876712 10.5569554,6.30958904 10.6145388,6.29041096 C10.6337333,6.27123287 10.6337333,6.27123287 10.6529278,6.27123287 C10.6913167,6.2520548 10.7297056,6.2520548 10.7680946,6.23287671 C10.787289,6.23287671 10.8064835,6.21369863 10.8256779,6.21369863 C10.8640669,6.19452055 10.9024558,6.19452055 10.9216503,6.17534247 C10.9408447,6.17534247 10.9600392,6.15616438 10.9792337,6.15616438 C10.9984281,6.1369863 11.0368171,6.1369863 11.0560115,6.11780821 C11.0560115,6.11780822 11.075206,6.09863014 11.0944004,6.09863014 C11.1135949,6.07945205 11.1519838,6.07945205 11.1711783,6.06027397 C11.1903728,6.06027398 11.1903728,6.04109589 11.2095672,6.04109589 L11.2095672,6.04109589 L11.3055396,5.98356164 C11.3055396,5.96438356 11.324734,5.96438356 11.324734,5.96438356 C11.363123,5.94520548 11.3823174,5.94520548 11.4015119,5.92602739 L11.4015119,5.92602739 L11.4399008,5.90684931 L11.4399008,5.90684931 L11.4974842,5.86849315 C11.5166787,5.86849315 11.5166787,5.84931506 11.5358731,5.84931506 C11.5358731,5.83013699 11.5550676,5.8109589 11.5742621,5.8109589 L11.5742621,5.8109589 L11.5934565,5.79178082 L11.5934565,5.79178082 L11.6510399,5.75342466 C11.6510399,5.73424657 11.6702344,5.73424657 11.6702344,5.73424657 C11.6894289,5.71506849 11.7086233,5.71506849 11.7278178,5.6958904 L11.7278178,5.6958904 L11.7662067,5.65753424 C11.7854012,5.65753424 11.7854012,5.65753424 11.8045956,5.63835616 L11.8045956,5.63835616 L11.7662067,5.63835616 L11.7662067,3.77808219 C10.6529278,4.43013699 8.75267578,4.79452055 6.81403487,4.83287671 L6.81403487,4.83287671 L5.56639469,4.83287671 C5.4512279,4.83287671 5.33606111,4.81369863 5.22089433,4.81369863 L5.22089433,4.81369863 L5.16331094,4.81369863 C5.06733861,4.81369863 4.97136629,4.79452054 4.87539397,4.79452054 C4.83700504,4.77534247 4.79861611,4.77534247 4.76022719,4.77534247 C4.66425486,4.77534247 4.587477,4.75616438 4.51069914,4.75616438 C4.47231022,4.7369863 4.43392128,4.7369863 4.39553236,4.7369863 C4.28036558,4.7369863 4.18439325,4.71780822 4.06922647,4.69863014 C4.050032,4.67945205 4.01164308,4.67945205 3.99244861,4.67945205 C3.89647628,4.66027398 3.81969842,4.66027398 3.72372609,4.64109589 C3.68533717,4.64109589 3.64694823,4.62191781 3.60855931,4.62191781 C3.53178145,4.62191779 3.45500359,4.60273972 3.37822573,4.58356164 C3.33983681,4.58356165 3.32064234,4.56438356 3.28225342,4.56438356 C3.18628109,4.54520546 3.07111431,4.52602739 2.97514198,4.50684931 C2.93675305,4.50684932 2.91755859,4.48767123 2.89836412,4.48767123 L2.89836412,4.48767123 L2.66803056,4.43013699 L2.66803056,4.43013699 L2.57205823,4.4109589 C2.51447484,4.39178082 2.43769698,4.37260275 2.36091912,4.35342466 C2.34172466,4.35342466 2.30333573,4.33424657 2.28414127,4.33424657 C2.18816895,4.2958904 2.11139109,4.27671232 2.01541877,4.23835616 C1.9962243,4.23835617 1.97702984,4.21917809 1.95783537,4.21917809 C1.90025197,4.2 1.82347411,4.16164384 1.76589072,4.14246576 L1.76589072,4.14246576 L1.68911286,4.10410958 C1.63152947,4.0849315 1.55475161,4.04657534 1.49716822,4.02739725 C1.47797375,4.02739727 1.4587793,4.00821918 1.43958483,4.00821918 L1.43958483,4.00821918 L1.20925125,3.89315068 C1.19005678,3.87397261 1.17086233,3.87397261 1.15166786,3.85479452 C1.09408447,3.81643835 1.05569553,3.79726026 0.998112142,3.75890411 C0.978917687,3.75890411 0.978917687,3.73972602 0.959723219,3.73972602 L0.959723219,3.73972602 Z M6.43014559,0.958904105 C2.91755859,0.958904105 1.01730661,1.93698631 1.01730661,2.39726028 C1.01730661,2.47397261 1.05569553,2.56986301 1.15166786,2.66575343 C1.65072394,3.18356164 3.47419806,3.87397259 6.43014559,3.87397259 L6.43014559,3.87397259 L7.21214229,3.87326229 C7.32162183,3.8718417 7.42825774,3.8675799 7.54342453,3.85479452 L7.54342453,3.85479452 L7.60100792,3.85479452 C7.77375809,3.83561644 7.92731381,3.83561644 8.08086953,3.81643835 L8.08086953,3.81643835 L8.11925847,3.81643835 L8.57992561,3.75890411 L8.61831454,3.75890411 C8.77187026,3.73972602 8.90623151,3.72054795 9.04059276,3.70136986 C9.05978723,3.68219178 9.07898168,3.68219178 9.09817615,3.68219178 L9.09817615,3.68219178 L9.42448204,3.62465753 L9.42448204,3.62465753 L9.55884329,3.58630137 C9.63562115,3.58630136 9.71239901,3.56712329 9.7699824,3.5479452 L9.7699824,3.5479452 L10.0578994,3.47123287 C10.0770938,3.47123287 10.0962883,3.45205479 10.1154828,3.45205479 C10.6721222,3.29863014 11.1135949,3.10684932 11.4015119,2.93424657 C11.4399008,2.91506849 11.4782897,2.87671233 11.5166787,2.85753424 C11.5358731,2.85753424 11.5358731,2.83835616 11.5550676,2.83835616 C11.7086233,2.72328767 11.8045957,2.62739725 11.8429846,2.51232877 L11.8429846,2.51232877 L11.8429846,2.43561644 C11.8429846,1.9369863 9.94273259,0.958904105 6.43014559,0.958904105 Z" id="形状结合"></path>
                    <path d="M13.3770919,8 C13.5109706,8 13.6203049,8.11137946 13.6203049,8.25003551 L13.6203049,8.25003551 L13.6203049,9.59909076 C13.6203049,10.3912487 14.4537003,10.4571672 14.4537003,10.4571672 L14.4537003,10.4571672 L15.7567869,10.4571672 C15.8906657,10.4571672 16,10.5685466 16,10.7072027 L16,10.7072027 L16,15.7135956 C16,16.0011364 15.7222016,16 15.7222016,16 L10.2777984,16 C10.0189662,16 10,15.7135956 10,15.7135956 L10,15.7135956 L10,8.28640432 C10,8.01932093 10.2777984,8 10.2777984,8 L10.2777984,8 Z M14.3187058,13.8917459 L11.6924507,13.8917459 C11.558572,13.8917459 11.4492376,14.0042619 11.4492376,14.1417814 C11.4492376,14.279301 11.558572,14.3918169 11.6924507,14.3918169 L11.6924507,14.3918169 L14.3187058,14.3918169 C14.4525846,14.3918169 14.5619189,14.279301 14.5619189,14.1417814 C14.5619189,14.0042619 14.4525846,13.8917459 14.3187058,13.8917459 L14.3187058,13.8917459 Z M14.3187058,12.6302031 L11.6924507,12.6302031 C11.558572,12.6302031 11.4492376,12.7427191 11.4492376,12.8802386 C11.4492376,13.0177581 11.558572,13.1302741 11.6924507,13.1302741 L11.6924507,13.1302741 L14.3187058,13.1302741 C14.4525846,13.1302741 14.5619189,13.0177581 14.5619189,12.8802386 C14.5619189,12.7427191 14.4525846,12.6302031 14.3187058,12.6302031 L14.3187058,12.6302031 Z M14.3187058,11.3675238 L11.6924507,11.3675238 C11.558572,11.3675238 11.4492376,11.4800397 11.4492376,11.6175593 C11.4492376,11.7550788 11.558572,11.8675948 11.6924507,11.8675948 L11.6924507,11.8675948 L14.3187058,11.8675948 C14.4525846,11.8675948 14.5619189,11.7550788 14.5619189,11.6175593 C14.5619189,11.4800397 14.4525846,11.3675238 14.3187058,11.3675238 L14.3187058,11.3675238 Z M14.1758991,8.43415257 C14.1758991,8.29776957 14.3354407,8.22957806 14.4291558,8.32504617 L14.4291558,8.32504617 L15.7032354,9.62409431 C15.7980662,9.71956242 15.7311268,9.88549507 15.5983637,9.88549507 L15.5983637,9.88549507 L14.5150614,9.88549507 C14.5150614,9.88549507 14.1747862,9.8684472 14.1758991,9.53544536 L14.1758991,9.53544536 Z" id="形状结合"></path>
                </g>
            </g>
        </g>
    </g>
</svg>