<?xml version="1.0" encoding="UTF-8"?>
<svg width="16px" height="14px" viewBox="0 0 16 14" version="1.1" xmlns="http://www.w3.org/2000/svg" xmlns:xlink="http://www.w3.org/1999/xlink">
    <title>对象存储 icon</title>
    <g id="门户" stroke="none" stroke-width="1" fill="none" fill-rule="evenodd">
        <g id="左导航设计规范" transform="translate(-770.000000, -284.000000)" fill="#666666" fill-rule="nonzero">
            <g id="对象存储-icon" transform="translate(770.000000, 283.000000)">
                <path d="M8.07013894,5.91312928 C8.36295307,6.18355723 8.36297181,6.6219964 8.07019517,6.89244166 L5.79854371,8.99077871 C5.79820325,8.99109435 5.7978624,8.99140977 5.79752115,8.99172495 C4.65421148,10.0476768 4.65421148,11.7658576 5.7975024,12.8218094 C6.36909163,13.3497161 7.12015182,13.6137213 7.87098709,13.6137733 C8.62199105,13.6138425 9.37275134,13.3498546 9.94449052,12.8218094 L9.9501884,12.8173256 L11.8467587,11.0779343 C11.7014504,10.8075975 11.619709,10.5031726 11.619709,10.1814452 C11.619709,9.06602728 12.6021977,8.15855896 13.8098358,8.15855896 C15.0174926,8.15855896 16,9.06602728 16,10.1814452 C16,11.2968458 15.0174926,12.2042795 13.8098358,12.2042795 C13.4978436,12.2042795 13.2008788,12.1437135 12.9320005,12.0346427 L10.8363159,13.9567031 C10.7980912,13.9917453 10.7568084,14.0222017 10.7132679,14.0480756 C9.91757178,14.6642483 8.92222476,15 7.87100583,15 C6.68720977,15 5.57428364,14.5742158 4.73720859,13.8011045 C3.90015229,13.0279932 3.4391884,12.0000866 3.4391884,10.9067585 C3.4391884,9.93652919 3.80222472,9.01781885 4.4689211,8.28297992 C4.4976542,8.24149028 4.53156451,8.20233195 4.57070828,8.16617617 L7.00984513,5.91316391 C7.30264052,5.64273596 7.77734355,5.64270134 8.07013894,5.91312928 Z M13.8098358,9.37040371 C13.3256672,9.37040371 12.9317682,9.73424624 12.9317682,10.1814625 C12.9317682,10.6286441 13.3256672,10.9924694 13.8098358,10.9924694 C14.2940231,10.9924694 14.6879408,10.6286441 14.6879408,10.1814625 C14.6879408,9.73424624 14.2940231,9.37040371 13.8098358,9.37040371 Z M8.2421499,1 C9.42592723,1 10.5388534,1.42576691 11.3758909,2.19889551 C12.2129472,2.9720241 12.6739486,3.99993075 12.6739486,5.09327609 C12.6739486,6.06484446 12.309921,6.98473949 11.6414724,7.72009064 C11.6141959,7.75989999 11.5812919,7.79777105 11.5434784,7.83283706 L9.4212413,9.80087944 C9.27474052,9.9367253 9.08237389,10.0047088 8.88998852,10.0047088 C8.69861531,10.0047088 8.5072421,9.9374697 8.36092875,9.80288761 C8.06753356,9.53299633 8.06657763,9.09455716 8.35877322,8.82359255 L10.3155971,7.00832699 C11.4589068,5.95234056 11.4589068,4.23414237 10.3155971,3.17817326 C9.76175816,2.66664358 9.02539303,2.38492833 8.2421499,2.38492833 C7.45890677,2.38492833 6.72254165,2.66664358 6.16868396,3.17819057 L6.15929252,3.185 L4.20306928,4.98537151 L4.17418653,5.00873751 C4.30640454,5.26896228 4.38032848,5.559271 4.38032848,5.86522748 C4.38032848,6.98062807 3.39782104,7.88807908 2.19016424,7.88807908 C0.982507439,7.88807908 -4.39648318e-14,6.98062807 -4.39648318e-14,5.86522748 C-4.39648318e-14,4.74982688 0.982488695,3.84239319 2.19016424,3.84239319 C2.52179139,3.84239319 2.83643835,3.91081814 3.11842431,4.03318478 L3.14500597,4.00399903 L5.27601509,2.04402396 C5.31484929,2.00830993 5.35685918,1.97733883 5.40120127,1.95110905 C6.19643645,1.33547044 7.19138801,1 8.2421499,1 Z" id="形状结合"></path>
            </g>
        </g>
    </g>
</svg>