<?xml version="1.0" encoding="UTF-8"?>
<svg width="14px" height="14px" viewBox="0 0 14 14" version="1.1" xmlns="http://www.w3.org/2000/svg" xmlns:xlink="http://www.w3.org/1999/xlink">
    <title>个人信息icon</title>
    <g id="门户" stroke="none" stroke-width="1" fill="none" fill-rule="evenodd">
        <g id="左导航设计规范" transform="translate(-980.000000, -290.000000)" fill="#333333" fill-rule="nonzero">
            <g id="个人信息icon" transform="translate(980.000000, 290.000000)">
                <path d="M7,0 C9.209139,0 11,1.790861 11,4 C11,5.40190344 10.2788062,6.63536303 9.18718963,7.3496077 C10.6419319,7.82652235 11.8862902,8.76861918 12.7450814,9.99967126 L11.4723307,10.0001315 C10.3736859,8.77255645 8.77706308,8 7,8 C3.6862915,8 1,10.6862915 1,14 L8.8817842e-16,14 C8.8817842e-16,10.8980429 2.01766623,8.26733696 4.81220162,7.34867931 C3.72119382,6.63536303 3,5.40190344 3,4 C3,1.790861 4.790861,0 7,0 Z M13.5,13 C13.7761424,13 14,13.2238576 14,13.5 C14,13.7761424 13.7761424,14 13.5,14 L8.5,14 C8.22385763,14 8,13.7761424 8,13.5 C8,13.2238576 8.22385763,13 8.5,13 L13.5,13 Z M13.5,11 C13.7761424,11 14,11.2238576 14,11.5 C14,11.7761424 13.7761424,12 13.5,12 L8.5,12 C8.22385763,12 8,11.7761424 8,11.5 C8,11.2238576 8.22385763,11 8.5,11 L13.5,11 Z M7,1 C5.34314575,1 4,2.34314575 4,4 C4,5.65685425 5.34314575,7 7,7 C8.65685425,7 10,5.65685425 10,4 C10,2.34314575 8.65685425,1 7,1 Z" id="形状结合"></path>
            </g>
        </g>
    </g>
</svg>