<?xml version="1.0" encoding="UTF-8"?>
<svg width="14px" height="16px" viewBox="0 0 14 16" version="1.1" xmlns="http://www.w3.org/2000/svg" xmlns:xlink="http://www.w3.org/1999/xlink">
    <title>数据库RDS icon</title>
    <g id="门户" stroke="none" stroke-width="1" fill="none" fill-rule="evenodd">
        <g id="左导航设计规范" transform="translate(-771.000000, -322.000000)" fill="#666666" fill-rule="nonzero">
            <g id="数据库RDS-icon" transform="translate(770.000000, 322.000000)">
                <path d="M10.7101482,12.2831564 L10.7101482,14.139839 C10.7101482,15.1653792 9.87807347,15.9967438 8.85165724,15.9967438 C7.82524101,15.9967438 6.99316625,15.1653792 6.99316625,14.139839 C6.99316625,13.1144215 7.82514145,12.2831564 8.85143486,12.2831564 L8.85143486,12.2831564 L10.7101482,12.2831564 Z M13.1408418,12.2831562 C13.6337577,12.2829204 14.1065528,12.4784589 14.4550969,12.8267056 C14.8036411,13.1749523 14.9993466,13.6473438 14.9991107,14.139839 C14.9991107,15.1655019 14.1669361,15.996966 13.1403971,15.996966 C12.113858,15.996966 11.2816837,15.1655019 11.2816837,14.139839 L11.2816837,14.139839 L11.2816837,12.2831562 Z M7.43014559,-2.78888024e-13 C10.5972322,-2.78888024e-13 13.8027078,0.843835617 13.8027078,2.43561644 C13.8027078,2.51232876 13.7941769,2.5805175 13.7828024,2.65154743 L13.7643189,2.76164383 L13.764,7.228 L12.862,7.321 L12.862179,6.7890411 L12.8429846,6.7890411 C12.8045956,6.80821918 12.7470122,6.82739725 12.7086233,6.84657534 C12.6894289,6.84657534 12.6894289,6.86575343 12.6702344,6.86575343 C12.612651,6.88493151 12.5550676,6.92328767 12.4974842,6.94246576 L12.4686925,6.95205479 L12.4686925,6.95205479 L12.4399008,6.96164383 L12.3055396,7.01917809 L12.2671506,7.03835616 L12.2671506,7.03835616 L12.2287617,7.05753424 L12.0944004,7.11506849 C12.075206,7.13424657 12.0368171,7.13424657 12.0176226,7.15342466 C11.9600392,7.17260275 11.9216503,7.19178082 11.8640669,7.2109589 C11.8448724,7.2109589 11.8064835,7.23013699 11.787289,7.23013699 C11.7105112,7.24931508 11.6529278,7.26849315 11.5761499,7.28767123 C11.5761499,7.30684931 11.5569554,7.30684931 11.537761,7.30684931 C11.4417887,7.34520548 11.3650108,7.36438355 11.2690385,7.38356164 C11.2306495,7.38356164 11.2114551,7.40273972 11.1730662,7.40273972 C11.1154828,7.40273974 11.0578994,7.42191781 10.9811215,7.44109589 C10.9427326,7.44109588 10.9043437,7.46027397 10.8659547,7.46027397 C10.8083713,7.47945205 10.7507879,7.47945205 10.6740101,7.49863014 L10.732,7.487 L8.42523818,7.24875735 C8.33677921,7.23960244 8.24785756,7.2363629 8.1590652,7.23904059 L8.02604762,7.24749529 C7.5856345,7.29026227 7.19251449,7.47280793 6.88633572,7.74695577 L6.85431165,7.7479452 C6.7775338,7.73515981 6.70075595,7.73089801 6.62966534,7.72947741 L6.52800576,7.72876712 L6.35525558,7.72876712 C6.25928325,7.72876713 6.16331094,7.70958904 6.06733861,7.70958904 C6.00975522,7.69041096 5.97136628,7.69041096 5.91378289,7.69041096 C5.81781058,7.69041096 5.70264379,7.69041096 5.60667147,7.67123287 C5.56828253,7.65205479 5.52989359,7.65205479 5.49150467,7.65205479 C5.35714342,7.65205479 5.24197664,7.63287671 5.10761539,7.61369863 C5.06922645,7.59452054 5.05003198,7.59452054 5.01164306,7.59452054 C4.9348652,7.57534247 4.83889289,7.57534247 4.74292056,7.55616438 C4.70453163,7.55616438 4.67467358,7.54764079 4.64765914,7.54195839 L4.60855931,7.5369863 L4.37822573,7.49863014 C4.32064234,7.49863014 4.28225341,7.47945205 4.24386448,7.47945205 C4.16708663,7.47945205 4.10950323,7.46027398 4.03272538,7.44109589 C3.99433645,7.44109589 3.95594752,7.42191781 3.91755859,7.42191781 L3.79279458,7.39315069 L3.79279458,7.39315069 L3.66803056,7.36438356 L3.62964162,7.36438356 C3.53366931,7.34520548 3.45689145,7.30684932 3.36091912,7.28767123 L3.31293296,7.27808219 L3.31293296,7.27808219 L3.2649468,7.26849315 L3.09219662,7.2109589 L2.9962243,7.17260273 C2.93864091,7.15342465 2.90025197,7.13424657 2.84266858,7.11506849 C2.80427966,7.09589042 2.76589073,7.09589042 2.74669627,7.07671233 L2.66991841,7.04794521 L2.66991841,7.04794521 L2.59314055,7.01917809 L2.53555716,7 L2.3436125,6.92328767 C2.32441805,6.92328767 2.32441805,6.90410958 2.30522358,6.90410958 C2.26683466,6.8849315 2.20925125,6.86575343 2.17086233,6.84657534 L2.14207063,6.8369863 L2.14207063,6.8369863 L2.11327894,6.82739725 L1.99811214,6.76986301 C1.98531584,6.76986301 1.97251953,6.76133942 1.96541047,6.75565702 L1.95972322,6.75068492 L1.95972322,8.64931506 C1.95972322,8.66849315 1.97891769,8.66849315 1.97891769,8.66849315 C1.97891767,8.68767123 1.99811214,8.68767123 1.99811214,8.68767123 C2.01730661,8.68767122 2.01730661,8.70684931 2.03650108,8.70684931 C2.03650108,8.72602739 2.05569555,8.72602739 2.05569555,8.72602739 C2.09408447,8.74520548 2.13247341,8.76438356 2.1900568,8.80273972 C2.19005678,8.82191781 2.20925125,8.82191781 2.20925125,8.82191781 C2.22204756,8.8347032 2.23484388,8.84748859 2.24195294,8.84890919 L2.24764019,8.84109589 L2.26683466,8.86027397 L2.32441805,8.89863014 C2.3436125,8.89863012 2.3436125,8.91780821 2.36280697,8.91780821 C2.38200144,8.9369863 2.42039036,8.9369863 2.43958483,8.95616438 C2.43958483,8.96894977 2.4481157,8.97321157 2.45380295,8.97463217 L2.4587793,8.97534247 L2.57394608,9.03287671 L2.68911286,9.09041096 L2.70830733,9.1 L2.70830733,9.1 L2.7275018,9.10958904 L2.82347412,9.1479452 C2.82347412,9.1479452 2.84266858,9.16712329 2.86186305,9.16712329 C2.88105752,9.18630136 2.91944645,9.18630136 2.95783537,9.20547945 C2.97702984,9.20547945 2.9962243,9.22465753 3.01541877,9.22465753 C3.05380769,9.22465753 3.09219662,9.2438356 3.13058555,9.26301369 C3.14338186,9.27579908 3.1476473,9.28006088 3.15475636,9.28148148 L3.16897448,9.28219178 L3.34172466,9.33972602 L3.38011359,9.33972602 C3.43769697,9.33972603 3.47608591,9.35890411 3.5336693,9.37808219 L3.562461,9.38767123 L3.562461,9.38767123 L3.5912527,9.39726028 L3.72561395,9.43561644 C3.76400289,9.43561644 3.78319734,9.45479452 3.80239181,9.45479452 C3.84078073,9.47397259 3.89836414,9.47397259 3.93675306,9.49315068 C3.975142,9.49315068 3.99433645,9.51232877 4.01353092,9.51232877 C4.07111431,9.53150684 4.1286977,9.53150684 4.18628109,9.55068492 C4.18628111,9.56986301 4.20547556,9.56986301 4.22467003,9.56986301 C4.30144788,9.56986302 4.37822573,9.5890411 4.45500359,9.60821918 C4.46779991,9.62100456 4.48059621,9.62526636 4.49339252,9.62668695 L4.51258698,9.62739725 L4.70453164,9.66575343 C4.74292056,9.6849315 4.76211503,9.6849315 4.80050395,9.6849315 C4.85808736,9.6849315 4.91567075,9.70410958 4.97325414,9.70410958 C5.01164308,9.72328767 5.03083754,9.72328767 5.06922647,9.72328767 C5.12680986,9.72328767 5.20358772,9.74246576 5.26117111,9.74246576 C5.29956003,9.76164383 5.3187545,9.76164383 5.35714342,9.76164383 L5.48190744,9.77123287 L5.48190744,9.77123287 L5.60667147,9.78082191 L5.64506039,9.78082191 L5.79861611,9.79041096 L5.79861611,9.79041096 L5.95217183,9.8 L6.04814415,9.8 L6.266,9.818 L6.355,10.739 L6.31686665,10.739726 C6.26888049,10.739726 6.22089433,10.7349315 6.17290817,10.730137 L6.02894969,10.7205479 C5.97136629,10.7013699 5.93297736,10.7013699 5.87539397,10.7013699 C5.77942164,10.7013699 5.66425486,10.7013699 5.56828253,10.6821918 C5.52989361,10.6630137 5.49150467,10.6630137 5.45311575,10.6630137 C5.3187545,10.6630137 5.20358772,10.6438356 5.06922647,10.6246575 C5.04363384,10.6118721 5.02657209,10.6076103 5.00666672,10.6061897 L4.97325414,10.6054794 L4.68533717,10.5671233 C4.64694825,10.5671233 4.60855931,10.5479452 4.57017039,10.5479452 C4.49339253,10.5287671 4.41661467,10.5287671 4.33983681,10.509589 C4.30144789,10.509589 4.26305895,10.490411 4.22467003,10.490411 C4.14789217,10.4904109 4.09030878,10.4712329 4.01353092,10.4520548 C3.99433645,10.4520548 3.95594752,10.4328767 3.91755859,10.4328767 C3.85357705,10.4200913 3.7895955,10.4073059 3.7313012,10.3945206 L3.64883609,10.3753425 L3.61044716,10.3753425 C3.49528037,10.3561644 3.41850252,10.3178082 3.32253019,10.2986301 L3.28414127,10.2890411 L3.28414127,10.2890411 L3.24575234,10.2794521 L3.07300216,10.2219178 L2.97702983,10.1835616 C2.91944645,10.1643836 2.88105752,10.1452055 2.82347412,10.1260274 C2.80427966,10.1260274 2.76589073,10.1260274 2.74669627,10.1068493 C2.68911287,10.0876712 2.65072394,10.0684931 2.59314055,10.0493151 C2.57394608,10.0493151 2.55475162,10.030137 2.53555716,10.030137 C2.47797375,10.0109589 2.40119589,9.97260275 2.3436125,9.95342466 C2.32441805,9.95342466 2.32441805,9.93424657 2.30522358,9.93424657 C2.24764019,9.91506849 2.19005678,9.89589042 2.15166786,9.87671233 C2.13247339,9.87671233 2.11327894,9.85753424 2.09408447,9.85753424 C2.05569553,9.83835616 2.01730661,9.81917809 1.99811214,9.8 C1.99811215,9.78721461 1.98958128,9.78295281 1.98389403,9.78153221 L1.97891769,9.78082191 L1.97891769,11.6219178 C2.35129357,11.8925055 3.57444813,12.595576 6.30648548,12.7579667 L6.21364518,13.7128449 C2.40409869,13.4782068 1.18652085,12.2301973 1.13436125,12.1780822 C1.062382,12.1061644 1.02279342,12.0234589 1.00749784,11.9380565 L1,11.8520548 L1,2.43561644 C1,2.33972603 1.01919447,2.24383562 1.07677786,2.16712329 C1.42227822,0.747945201 4.43580914,-2.78888024e-13 7.43014559,-2.78888024e-13 Z M8.85187963,7.99741032 C9.87824502,7.99741032 10.7103474,8.82860355 10.710593,9.85409292 L10.710593,9.85409292 L10.710593,11.7107755 L8.85143486,11.7107755 C7.82518852,11.710709 6.99328679,10.8794634 6.99328679,9.85409292 C6.99328679,8.82872246 7.82518852,7.99747683 8.85143486,7.99741032 Z M13.1412866,7.99696596 C14.1678257,7.99696596 15,8.82843002 15,9.85409292 C15,10.8795104 14.1680248,11.7107755 13.1417314,11.7107755 L13.1417314,11.7107755 L11.2825732,11.7107755 L11.2825732,9.85409292 C11.2825732,8.82843002 12.1147476,7.99696596 13.1412866,7.99696596 Z M1.95972322,3.73972602 L1.95972322,5.61917809 L1.97891769,5.61917809 L1.99811214,5.63835616 L2.01730661,5.6479452 L2.01730661,5.6479452 L2.03650108,5.65753424 L2.05569555,5.67671233 C2.07489001,5.6958904 2.09408447,5.6958904 2.11327894,5.71506849 C2.11327893,5.72785388 2.1218098,5.73211568 2.12749705,5.73353627 L2.13247339,5.73424657 L2.1900568,5.77260273 L2.20925125,5.79178082 C2.22844572,5.79178082 2.24764019,5.8109589 2.17086233,5.84931506 C2.19005678,5.84931506 2.19005678,5.86849315 2.20925125,5.86849315 C2.22844573,5.88767122 2.24764019,5.88767122 2.26683466,5.90684931 C2.28602911,5.90684931 2.28602911,5.92602739 2.30522358,5.92602739 C2.34361251,5.94520548 2.36280697,5.94520548 2.38200144,5.96438356 L2.40119589,5.9739726 L2.40119589,5.9739726 L2.42039036,5.98356164 L2.53555716,6.04109589 L2.55475161,6.04109589 C2.57394608,6.04109589 2.61233501,6.06027397 2.65072394,6.07945205 C2.65072394,6.07945205 2.65925481,6.08797565 2.6706293,6.09365804 L2.68911286,6.09863014 L2.78508519,6.1369863 L2.81387688,6.14657534 L2.81387688,6.14657534 L2.84266858,6.15616438 L2.93864091,6.19452054 C2.95783537,6.19452054 2.97702983,6.21369863 2.9962243,6.21369863 C3.03461322,6.2328767 3.07300216,6.2328767 3.11139108,6.25205479 C3.11139109,6.25205479 3.11992196,6.26057838 3.13129646,6.26626077 L3.14978002,6.27123287 L3.32253019,6.32876712 C3.34172466,6.3479452 3.34172466,6.3479452 3.36091912,6.3479452 C3.39930805,6.36712329 3.43769698,6.36712329 3.49528037,6.38630137 C3.51447484,6.38630136 3.5336693,6.40547945 3.55286377,6.40547945 C3.59125269,6.42465753 3.64883609,6.42465753 3.68722502,6.44383562 L3.72561395,6.45342465 L3.72561395,6.45342465 L3.76400287,6.46301369 L3.89836412,6.50136986 L3.93675305,6.5109589 L3.93675305,6.5109589 L3.97514198,6.52054795 L4.14789217,6.55890411 C4.16708664,6.57808219 4.18628109,6.57808219 4.20547556,6.57808219 C4.28225342,6.57808219 4.35903128,6.59726026 4.43580914,6.61643835 C4.45500361,6.63561644 4.47419806,6.63561644 4.49339253,6.63561644 C4.57017039,6.65479451 4.62775378,6.65479451 4.68533717,6.67397259 C4.72372611,6.69315068 4.74292058,6.69315068 4.7813095,6.69315068 C4.83889289,6.69315068 4.89647628,6.71232877 4.95405967,6.71232877 C4.99244861,6.73150685 5.01164308,6.73150685 5.050032,6.73150685 C5.12680986,6.73150684 5.18439325,6.75068492 5.24197664,6.75068492 C5.26756926,6.76347031 5.28463101,6.76773211 5.30453638,6.76915271 L5.33794897,6.76986301 L5.587477,6.7890411 L5.62586594,6.7890411 L5.77942164,6.79863014 L5.77942164,6.79863014 L5.93297736,6.80821918 L6.02894969,6.80821918 L6.14411647,6.81780821 L6.14411647,6.81780821 L6.25928326,6.82739725 L6.37445005,6.82739725 C6.41283897,6.84018264 6.45975877,6.84444444 6.5095222,6.84586504 L6.58558915,6.84657534 L8.27470203,6.84657534 C8.32588727,6.83378995 8.36854163,6.82952815 8.41403962,6.82810755 L8.48584114,6.82739725 L8.60100792,6.82739725 L8.70657747,6.81780822 L8.70657747,6.81780822 L8.81214703,6.80821918 L8.90811936,6.80821918 C8.98489721,6.80821918 9.05314419,6.79969559 9.11854755,6.79401319 L9.21523078,6.7890411 L9.23442525,6.7890411 C9.33039756,6.7890411 9.42636989,6.7890411 9.50314775,6.76986301 C9.54153668,6.75068492 9.56073115,6.75068492 9.59912007,6.75068492 C9.65670347,6.75068494 9.71428686,6.73150685 9.77187025,6.73150685 C9.81025918,6.71232877 9.82945365,6.71232877 9.86784258,6.71232877 C9.8934352,6.71232877 9.92755869,6.70380517 9.96452581,6.69812278 L10.0213983,6.69315068 L10.1173706,6.67397259 C10.174954,6.65479452 10.2325374,6.65479452 10.2901208,6.63561644 C10.3093153,6.61643835 10.3477042,6.61643835 10.3668987,6.61643835 C10.4180839,6.61643835 10.4692691,6.60791476 10.5204544,6.59654997 L10.5972322,6.57808219 L10.6356212,6.57808219 C10.6932046,6.55890411 10.7507879,6.55890411 10.8083713,6.53972602 C10.8467603,6.53972603 10.8659547,6.52054795 10.8851492,6.52054795 C10.9427326,6.50136986 10.9811215,6.50136986 11.0195104,6.48219178 C11.0387049,6.48219178 11.0770938,6.46301369 11.0962883,6.46301369 C11.1346772,6.44383562 11.1730662,6.44383562 11.2114551,6.42465753 C11.249844,6.42465753 11.2690385,6.40547945 11.2882329,6.40547945 C11.3266219,6.38630137 11.3650108,6.38630137 11.4033997,6.36712329 C11.4225942,6.36712329 11.4417887,6.3479452 11.4609831,6.3479452 C11.5185665,6.32876712 11.5569554,6.30958904 11.6145388,6.29041096 C11.6337333,6.27123287 11.6337333,6.27123287 11.6529278,6.27123287 C11.6913167,6.2520548 11.7297056,6.2520548 11.7680946,6.23287671 C11.787289,6.23287671 11.8064835,6.21369863 11.8256779,6.21369863 C11.8640669,6.19452055 11.9024558,6.19452055 11.9216503,6.17534247 C11.9408447,6.17534247 11.9600392,6.15616438 11.9792337,6.15616438 C11.9984281,6.1369863 12.0368171,6.1369863 12.0560115,6.11780821 C12.0560115,6.11780822 12.075206,6.09863014 12.0944004,6.09863014 C12.1135949,6.07945205 12.1519838,6.07945205 12.1711783,6.06027397 L12.1903728,6.05068494 L12.1903728,6.05068494 L12.2095672,6.04109589 L12.3055396,5.98356164 C12.3055396,5.96438356 12.324734,5.96438356 12.324734,5.96438356 C12.3503267,5.95159817 12.3673884,5.94733638 12.3816065,5.94023338 L12.4015119,5.92602739 L12.4399008,5.90684931 L12.4974842,5.86849315 C12.5166787,5.86849315 12.5166787,5.84931506 12.5358731,5.84931506 C12.5358731,5.83652968 12.544404,5.82374429 12.5557785,5.8166413 L12.5742621,5.8109589 L12.5934565,5.79178082 L12.6510399,5.75342466 C12.6510399,5.73424657 12.6702344,5.73424657 12.6702344,5.73424657 L12.6990261,5.71506849 L12.6990261,5.71506849 L12.7278178,5.6958904 L12.7662067,5.65753424 C12.779003,5.65753424 12.7832685,5.65753424 12.7903775,5.65185185 L12.8045956,5.63835616 L12.7662067,5.63835616 L12.7662067,3.77808219 C11.7225077,4.38938357 9.98713316,4.74784889 8.17689741,4.82187366 L7.81403487,4.83287671 L6.56639469,4.83287671 L6.39364451,4.82328767 L6.39364451,4.82328767 L6.22089433,4.81369863 L6.16331094,4.81369863 C6.06733861,4.81369863 5.97136629,4.79452054 5.87539397,4.79452054 C5.83700504,4.77534247 5.79861611,4.77534247 5.76022719,4.77534247 C5.66425486,4.77534247 5.587477,4.75616438 5.51069914,4.75616438 C5.47231022,4.7369863 5.43392128,4.7369863 5.39553236,4.7369863 C5.28036558,4.7369863 5.18439325,4.71780822 5.06922647,4.69863014 C5.050032,4.67945205 5.01164308,4.67945205 4.99244861,4.67945205 C4.89647628,4.66027398 4.81969842,4.66027398 4.72372609,4.64109589 C4.68533717,4.64109589 4.64694823,4.62191781 4.60855931,4.62191781 C4.53178145,4.62191779 4.45500359,4.60273972 4.37822573,4.58356164 C4.33983681,4.58356165 4.32064234,4.56438356 4.28225342,4.56438356 C4.18628109,4.54520546 4.07111431,4.52602739 3.97514198,4.50684931 C3.94954936,4.50684932 3.93248762,4.49832573 3.9182695,4.49264333 L3.89836412,4.48767123 L3.66803056,4.43013699 L3.57205823,4.4109589 C3.51447484,4.39178082 3.43769698,4.37260275 3.36091912,4.35342466 C3.34172466,4.35342466 3.30333573,4.33424657 3.28414127,4.33424657 C3.18816895,4.2958904 3.11139109,4.27671232 3.01541877,4.23835616 C2.9962243,4.23835617 2.97702984,4.21917809 2.95783537,4.21917809 L2.86186304,4.18082192 L2.86186304,4.18082192 L2.76589072,4.14246576 L2.68911286,4.10410958 C2.63152947,4.0849315 2.55475161,4.04657534 2.49716822,4.02739725 L2.46837652,4.01780822 L2.46837652,4.01780822 L2.43958483,4.00821918 L2.20925125,3.89315068 C2.19005678,3.87397261 2.17086233,3.87397261 2.15166786,3.85479452 C2.09408447,3.81643835 2.05569553,3.79726026 1.99811214,3.75890411 C1.97891769,3.75890411 1.97891769,3.73972602 1.95972322,3.73972602 Z M7.43014559,0.958904105 C3.91755859,0.958904105 2.01730661,1.93698631 2.01730661,2.39726028 C2.01730661,2.47397261 2.05569553,2.56986301 2.15166786,2.66575343 C2.63224038,3.16438355 4.34094266,3.82306781 7.10637711,3.87117524 L7.43014559,3.87397259 L8.21214229,3.87326229 L8.37565069,3.8682902 L8.37565069,3.8682902 L8.54342453,3.85479452 L8.60100792,3.85479452 C8.7161747,3.84200913 8.82281061,3.83774733 8.92660291,3.83064434 L9.08086953,3.81643835 L9.11925847,3.81643835 L9.57992561,3.75890411 L9.61831454,3.75890411 C9.77187026,3.73972602 9.90623151,3.72054795 10.0405928,3.70136986 C10.0533891,3.68858447 10.0661854,3.68432267 10.0789817,3.68290207 L10.0981762,3.68219178 L10.424482,3.62465753 L10.5588433,3.58630137 C10.6100285,3.58630136 10.6612138,3.57777777 10.7067118,3.56641298 L10.7699824,3.5479452 L11.0578994,3.47123287 C11.0770938,3.47123287 11.0962883,3.45205479 11.1154828,3.45205479 C11.6721222,3.29863014 12.1135949,3.10684932 12.4015119,2.93424657 C12.4399008,2.91506849 12.4782897,2.87671233 12.5166787,2.85753424 C12.5358731,2.85753424 12.5358731,2.83835616 12.5550676,2.83835616 C12.6779122,2.74630137 12.7639034,2.66652054 12.8130412,2.57937534 L12.8429846,2.51232877 L12.8429846,2.43561644 C12.8429846,1.9369863 10.9427326,0.958904105 7.43014559,0.958904105 Z" id="形状结合"></path>
            </g>
        </g>
    </g>
</svg>