<?xml version="1.0" encoding="UTF-8"?>
<svg width="16px" height="16px" viewBox="0 0 16 16" version="1.1" xmlns="http://www.w3.org/2000/svg" xmlns:xlink="http://www.w3.org/1999/xlink">
    <title>数据库Redis icon</title>
    <g id="门户" stroke="none" stroke-width="1" fill="none" fill-rule="evenodd">
        <g id="左导航设计规范" transform="translate(-770.000000, -361.000000)" fill="#666666" fill-rule="nonzero">
            <g id="数据库Redis-icon" transform="translate(770.000000, 361.000000)">
                <g id="编组-28">
                    <path d="M6.42465753,-1.35891298e-12 C9.5890411,-1.35891298e-12 12.7917808,0.843835617 12.7917808,2.43561644 C12.7917808,2.55068492 12.7726027,2.64657534 12.7534246,2.76164383 L12.7534246,2.76164383 L12.753,6.528 L11.852,7.102 L11.8520548,6.7890411 L11.8328767,6.7890411 C11.7945205,6.80821918 11.7369863,6.82739725 11.6986301,6.84657534 C11.6794521,6.84657534 11.6794521,6.86575343 11.660274,6.86575343 C11.6027397,6.88493151 11.5452055,6.92328767 11.4876712,6.94246576 C11.4684931,6.94246574 11.4493151,6.96164383 11.430137,6.96164383 C11.3917808,6.98082193 11.3342466,7 11.2958904,7.01917809 L11.2958904,7.01917809 L11.2191781,7.05753424 C11.1808219,7.07671233 11.1232877,7.0958904 11.0849315,7.11506849 L11.0849315,7.11506849 L11.0082192,7.15342466 C10.9506849,7.17260275 10.9123288,7.19178082 10.8547945,7.2109589 L10.8547945,7.2109589 L10.7780822,7.23013699 C10.7013699,7.24931508 10.6438356,7.26849315 10.5671233,7.28767123 C10.5671233,7.30684931 10.5479452,7.30684931 10.5287671,7.30684931 C10.4328767,7.34520548 10.3561644,7.36438355 10.260274,7.38356164 C10.2219178,7.38356164 10.2027397,7.40273972 10.1643836,7.40273972 C10.1068493,7.40273974 10.0493151,7.42191781 9.97260273,7.44109589 C9.93424657,7.44109588 9.8958904,7.46027397 9.85753424,7.46027397 C9.8,7.47945205 9.74246576,7.47945205 9.66575343,7.49863014 C9.62739725,7.49863012 9.58904108,7.51780821 9.55068492,7.51780821 C9.47397259,7.5369863 9.39726026,7.5369863 9.32054793,7.55616438 C9.28219178,7.55616438 9.2438356,7.57534247 9.20547945,7.57534247 C9.09041096,7.57534247 8.99452054,7.59452054 8.87945205,7.61369863 L8.87945205,7.61369863 L8.84109588,7.61369863 C8.70684931,7.6328767 8.59178082,7.6328767 8.45753424,7.65205479 C8.41917807,7.67123287 8.3808219,7.67123287 8.34246574,7.67123287 C8.24657534,7.67123287 8.15068494,7.69041096 8.05479452,7.69041096 C7.99726028,7.70958904 7.95890411,7.70958904 7.90136986,7.70958904 C7.80547945,7.70958903 7.70958904,7.72876712 7.61369863,7.72876712 L7.61369863,7.72876712 L7.44109588,7.72876712 C7.34520548,7.7479452 7.23013699,7.7479452 7.13424657,7.7479452 L5.84931506,7.7479452 C5.73424657,7.72876712 5.61917809,7.72876712 5.52328767,7.72876712 L5.52328767,7.72876712 L5.35068492,7.72876712 C5.25479451,7.72876713 5.15890411,7.70958904 5.06301369,7.70958904 C5.00547945,7.69041096 4.96712327,7.69041096 4.90958903,7.69041096 C4.81369863,7.69041096 4.69863014,7.69041096 4.60273972,7.67123287 C4.56438355,7.65205479 4.52602738,7.65205479 4.48767122,7.65205479 C4.35342465,7.65205479 4.23835616,7.63287671 4.10410958,7.61369863 C4.06575341,7.59452054 4.04657533,7.59452054 4.00821917,7.59452054 C3.93150684,7.57534247 3.83561644,7.57534247 3.73972602,7.55616438 C3.68219178,7.55616438 3.6438356,7.5369863 3.60547945,7.5369863 L3.60547945,7.5369863 L3.37534246,7.49863014 C3.31780821,7.49863014 3.27945204,7.47945205 3.24109588,7.47945205 C3.16438355,7.47945205 3.10684931,7.46027398 3.03013698,7.44109589 C2.99178082,7.44109589 2.95342465,7.42191781 2.91506849,7.42191781 C2.83835617,7.40273972 2.74246576,7.38356165 2.66575343,7.36438356 L2.66575343,7.36438356 L2.62739725,7.36438356 C2.53150685,7.34520548 2.45479452,7.30684932 2.35890411,7.28767123 C2.32054793,7.28767123 2.30136985,7.26849315 2.26301369,7.26849315 L2.26301369,7.26849315 L2.09041096,7.2109589 L2.09041096,7.2109589 L1.99452054,7.17260273 C1.9369863,7.15342465 1.89863012,7.13424657 1.84109588,7.11506849 C1.80273972,7.09589042 1.76438356,7.09589042 1.74520548,7.07671233 C1.68767123,7.05753424 1.64931506,7.03835617 1.59178082,7.01917809 C1.57260273,7.01917809 1.55342466,7 1.53424657,7 L1.53424657,7 L1.34246574,6.92328767 C1.32328767,6.92328767 1.32328767,6.90410958 1.30410958,6.90410958 C1.26575343,6.8849315 1.20821917,6.86575343 1.16986301,6.84657534 C1.15068492,6.84657534 1.13150685,6.82739725 1.11232877,6.82739725 L1.11232877,6.82739725 L0.997260264,6.76986301 C0.978082191,6.76986301 0.958904105,6.75068492 0.958904105,6.75068492 L0.958904105,6.75068492 L0.958904105,8.64931506 C0.958904105,8.66849315 0.978082191,8.66849315 0.978082191,8.66849315 C0.978082178,8.68767123 0.997260264,8.68767123 0.997260264,8.68767123 C1.01643835,8.68767122 1.01643835,8.70684931 1.03561644,8.70684931 C1.03561644,8.72602739 1.05479452,8.72602739 1.05479452,8.72602739 C1.09315068,8.74520548 1.13150685,8.76438356 1.1890411,8.80273972 C1.18904108,8.82191781 1.20821917,8.82191781 1.20821917,8.82191781 C1.22739725,8.84109589 1.24657534,8.86027398 1.24657534,8.84109589 L1.24657534,8.84109589 L1.26575343,8.86027397 L1.26575343,8.86027397 L1.32328767,8.89863014 C1.34246574,8.89863012 1.34246574,8.91780821 1.36164383,8.91780821 C1.38082191,8.9369863 1.41917807,8.9369863 1.43835616,8.95616438 C1.43835616,8.97534247 1.45753424,8.97534247 1.45753424,8.97534247 L1.45753424,8.97534247 L1.57260273,9.03287671 L1.68767122,9.09041096 C1.70684931,9.09041096 1.70684931,9.10958904 1.72602739,9.10958904 C1.76438356,9.12876712 1.78356165,9.12876712 1.82191781,9.1479452 C1.82191781,9.1479452 1.84109588,9.16712329 1.86027397,9.16712329 C1.87945205,9.18630136 1.91780822,9.18630136 1.95616438,9.20547945 C1.97534247,9.20547945 1.99452054,9.22465753 2.01369863,9.22465753 C2.05205479,9.22465753 2.09041096,9.2438356 2.12876712,9.26301369 C2.1479452,9.28219178 2.1479452,9.28219178 2.16712329,9.28219178 L2.16712329,9.28219178 L2.33972602,9.33972602 L2.37808219,9.33972602 C2.43561642,9.33972603 2.47397259,9.35890411 2.53150684,9.37808219 C2.55068494,9.37808219 2.56986301,9.39726028 2.5890411,9.39726028 L2.5890411,9.39726028 L2.72328767,9.43561644 C2.76164384,9.43561644 2.78082191,9.45479452 2.8,9.45479452 C2.83835616,9.47397259 2.89589042,9.47397259 2.93424657,9.49315068 C2.97260275,9.49315068 2.99178082,9.51232877 3.0109589,9.51232877 C3.06849315,9.53150684 3.12602739,9.53150684 3.18356164,9.55068492 C3.18356165,9.56986301 3.20273972,9.56986301 3.22191781,9.56986301 C3.29863012,9.56986302 3.37534246,9.5890411 3.45205479,9.60821918 C3.47123287,9.62739725 3.49041094,9.62739725 3.50958903,9.62739725 L3.50958903,9.62739725 L3.70136986,9.66575343 C3.73972602,9.6849315 3.75890411,9.6849315 3.79726026,9.6849315 L3.79726026,9.6849315 L3.96986301,9.70410958 C4.00821918,9.72328767 4.02739727,9.72328767 4.06575343,9.72328767 C4.12328767,9.72328767 4.2,9.74246576 4.25753424,9.74246576 C4.2958904,9.76164383 4.31506849,9.76164383 4.35342465,9.76164383 C4.43013698,9.76164383 4.52602739,9.78082191 4.60273972,9.78082191 L4.60273972,9.78082191 L4.64109588,9.78082191 C4.7369863,9.78082191 4.85205479,9.8 4.9479452,9.8 L4.9479452,9.8 L5.04383562,9.8 L5.04383562,9.8 L5.27397259,9.81917809 L5.3890411,9.81917809 C5.44657534,9.83835616 5.52328767,9.83835616 5.6,9.83835616 L5.6,9.83835616 L7.28767122,9.83835616 C7.36438355,9.81917809 7.42191779,9.81917809 7.49863012,9.81917809 L7.581,9.819 L7,10.1897314 L7,10.758 L5.8109589,10.7589041 C5.73424657,10.7461187 5.65753424,10.7418569 5.58650431,10.7404363 L5.4849315,10.739726 L5.31232877,10.739726 C5.21643835,10.739726 5.12054795,10.7205479 5.02465753,10.7205479 C4.96712329,10.7013699 4.92876712,10.7013699 4.87123287,10.7013699 C4.77534246,10.7013699 4.66027397,10.7013699 4.56438355,10.6821918 C4.52602739,10.6630137 4.48767122,10.6630137 4.44931506,10.6630137 C4.31506849,10.6630137 4.2,10.6438356 4.06575343,10.6246575 C4.02739725,10.6054794 4.00821917,10.6054794 3.96986301,10.6054794 C3.87397259,10.5863014 3.77808219,10.5863014 3.68219178,10.5671233 C3.64383562,10.5671233 3.60547945,10.5479452 3.56712329,10.5479452 C3.49041096,10.5287671 3.41369863,10.5287671 3.3369863,10.509589 C3.29863014,10.509589 3.26027397,10.490411 3.22191781,10.490411 C3.14520548,10.4904109 3.08767123,10.4712329 3.0109589,10.4520548 C2.99178082,10.4520548 2.95342465,10.4328767 2.91506849,10.4328767 C2.81917809,10.4136986 2.72328767,10.3945206 2.64657534,10.3753425 L2.64657534,10.3753425 L2.60821917,10.3753425 C2.49315068,10.3561644 2.41643835,10.3178082 2.32054793,10.2986301 C2.30136986,10.2986301 2.2630137,10.2794521 2.24383562,10.2794521 L2.24383562,10.2794521 L2.07123287,10.2219178 L2.07123287,10.2219178 L1.97534246,10.1835616 C1.91780822,10.1643836 1.87945205,10.1452055 1.82191781,10.1260274 C1.80273972,10.1260274 1.76438356,10.1260274 1.74520548,10.1068493 C1.68767123,10.0876712 1.64931506,10.0684931 1.59178082,10.0493151 C1.57260273,10.0493151 1.55342466,10.030137 1.53424657,10.030137 C1.47671232,10.0109589 1.39999999,9.97260275 1.34246574,9.95342466 C1.32328767,9.95342466 1.32328767,9.93424657 1.30410958,9.93424657 C1.24657534,9.91506849 1.18904108,9.89589042 1.15068492,9.87671233 C1.13150684,9.87671233 1.11232877,9.85753424 1.09315068,9.85753424 C1.05479451,9.83835616 1.01643835,9.81917809 0.997260264,9.8 C0.997260277,9.78082191 0.978082191,9.78082191 0.978082191,9.78082191 L0.978082191,9.78082191 L0.978082191,11.6219178 C1.4,11.9287671 2.91506849,12.7917808 6.48219178,12.7917808 C6.66086019,12.7917808 6.83408152,12.7895923 7.0019978,12.7853988 L7.00154315,13.7447871 C6.83320341,13.7486718 6.66012679,13.7506849 6.48219178,13.7506849 C1.89238611,13.7506849 0.336368415,12.3732754 0.151678036,12.1952705 L0.134246574,12.1780822 C0.0383561582,12.0821918 -1.05515596e-12,11.9671233 -1.05515596e-12,11.8520548 L-1.05515596e-12,11.8520548 L-1.05515596e-12,2.43561644 C-1.05515596e-12,2.33972603 0.0191780859,2.24383562 0.0767123301,2.16712329 C0.421917809,0.747945201 3.43287671,-1.35891298e-12 6.42465753,-1.35891298e-12 Z M0.958904105,3.73972602 L0.958904105,5.61917809 L0.978082191,5.61917809 L0.997260264,5.63835616 C1.01643835,5.63835616 1.01643835,5.65753424 1.03561644,5.65753424 L1.03561644,5.65753424 L1.05479452,5.67671233 C1.07397261,5.6958904 1.09315068,5.6958904 1.11232877,5.71506849 C1.11232875,5.73424657 1.13150684,5.73424657 1.13150684,5.73424657 L1.13150684,5.73424657 L1.1890411,5.77260273 L1.20821917,5.79178082 C1.22739725,5.79178082 1.24657534,5.8109589 1.16986301,5.84931506 C1.18904108,5.84931506 1.18904108,5.86849315 1.20821917,5.86849315 C1.22739727,5.88767122 1.24657534,5.88767122 1.26575343,5.90684931 C1.2849315,5.90684931 1.2849315,5.92602739 1.30410958,5.92602739 C1.34246576,5.94520548 1.36164383,5.94520548 1.38082191,5.96438356 C1.39999999,5.96438355 1.39999999,5.98356164 1.41917807,5.98356164 L1.41917807,5.98356164 L1.53424657,6.04109589 L1.55342465,6.04109589 C1.57260273,6.04109589 1.6109589,6.06027397 1.64931506,6.07945205 C1.64931506,6.07945205 1.66849313,6.09863014 1.68767122,6.09863014 L1.68767122,6.09863014 L1.78356164,6.1369863 L1.78356164,6.1369863 L1.84109588,6.15616438 C1.87945205,6.17534246 1.89863014,6.17534246 1.9369863,6.19452054 C1.95616438,6.19452054 1.97534246,6.21369863 1.99452054,6.21369863 C2.0328767,6.2328767 2.07123287,6.2328767 2.10958903,6.25205479 C2.10958904,6.25205479 2.12876712,6.27123287 2.1479452,6.27123287 L2.1479452,6.27123287 L2.32054793,6.32876712 C2.33972602,6.3479452 2.33972602,6.3479452 2.35890411,6.3479452 C2.39726026,6.36712329 2.43561644,6.36712329 2.49315068,6.38630137 C2.51232877,6.38630136 2.53150684,6.40547945 2.55068492,6.40547945 L2.55068492,6.40547945 L2.6849315,6.44383562 C2.70410958,6.4438356 2.74246574,6.46301369 2.76164383,6.46301369 L2.76164383,6.46301369 L2.8958904,6.50136986 C2.91506849,6.50136986 2.95342465,6.52054795 2.97260273,6.52054795 C3.03013699,6.53972602 3.08767123,6.53972602 3.14520548,6.55890411 C3.16438356,6.57808219 3.18356164,6.57808219 3.20273972,6.57808219 C3.27945205,6.57808219 3.35616438,6.59726026 3.43287671,6.61643835 C3.4520548,6.63561644 3.47123287,6.63561644 3.49041096,6.63561644 C3.56712329,6.65479451 3.62465753,6.65479451 3.68219178,6.67397259 C3.72054795,6.69315068 3.73972603,6.69315068 3.77808219,6.69315068 C3.83561644,6.69315068 3.89315068,6.71232877 3.95068492,6.71232877 C3.9890411,6.73150685 4.00821918,6.73150685 4.04657534,6.73150685 C4.12328767,6.73150684 4.18082191,6.75068492 4.23835616,6.75068492 C4.27671233,6.76986301 4.29589042,6.76986301 4.33424657,6.76986301 C4.41095889,6.76986301 4.50684931,6.7890411 4.58356164,6.7890411 L4.58356164,6.7890411 L4.62191781,6.7890411 C4.71780821,6.7890411 4.8328767,6.80821918 4.92876712,6.80821918 L4.92876712,6.80821918 L5.02465753,6.80821918 C5.10136986,6.80821917 5.17808219,6.82739725 5.25479452,6.82739725 L5.25479452,6.82739725 L5.36986301,6.82739725 C5.42739725,6.84657534 5.50410958,6.84657534 5.58082191,6.84657534 L5.58082191,6.84657534 L7.26849315,6.84657534 C7.34520548,6.82739725 7.40273972,6.82739725 7.47945205,6.82739725 L7.47945205,6.82739725 L7.59452054,6.82739725 C7.67123287,6.82739727 7.72876712,6.80821918 7.80547945,6.80821918 L7.80547945,6.80821918 L7.90136986,6.80821918 C8.01643835,6.80821918 8.11232875,6.7890411 8.20821917,6.7890411 L8.20821917,6.7890411 L8.22739725,6.7890411 C8.32328766,6.7890411 8.41917807,6.7890411 8.4958904,6.76986301 C8.53424657,6.75068492 8.55342466,6.75068492 8.59178082,6.75068492 C8.64931506,6.75068494 8.70684931,6.73150685 8.76438355,6.73150685 C8.80273972,6.71232877 8.82191781,6.71232877 8.86027397,6.71232877 C8.89863014,6.71232877 8.95616438,6.69315068 9.01369863,6.69315068 L9.01369863,6.69315068 L9.10958903,6.67397259 C9.16712329,6.65479452 9.22465753,6.65479452 9.28219178,6.63561644 C9.30136986,6.61643835 9.33972602,6.61643835 9.35890411,6.61643835 C9.43561644,6.61643835 9.51232877,6.59726028 9.5890411,6.57808219 L9.5890411,6.57808219 L9.62739725,6.57808219 C9.68493151,6.55890411 9.74246576,6.55890411 9.8,6.53972602 C9.83835617,6.53972603 9.85753424,6.52054795 9.87671233,6.52054795 C9.93424657,6.50136986 9.97260275,6.50136986 10.0109589,6.48219178 C10.030137,6.48219178 10.0684931,6.46301369 10.0876712,6.46301369 C10.1260274,6.44383562 10.1643836,6.44383562 10.2027397,6.42465753 C10.2410959,6.42465753 10.260274,6.40547945 10.2794521,6.40547945 C10.3178082,6.38630137 10.3561644,6.38630137 10.3945205,6.36712329 L10.3945205,6.36712329 L10.4520548,6.3479452 C10.509589,6.32876712 10.5479452,6.30958904 10.6054794,6.29041096 C10.6246575,6.27123287 10.6246575,6.27123287 10.6438356,6.27123287 C10.6821918,6.2520548 10.7205479,6.2520548 10.7589041,6.23287671 C10.7780822,6.23287671 10.7972603,6.21369863 10.8164383,6.21369863 C10.8547945,6.19452055 10.8931507,6.19452055 10.9123288,6.17534247 C10.9315069,6.17534247 10.9506849,6.15616438 10.969863,6.15616438 C10.9890411,6.1369863 11.0273973,6.1369863 11.0465753,6.11780821 C11.0465753,6.11780822 11.0657534,6.09863014 11.0849315,6.09863014 C11.1041096,6.07945205 11.1424657,6.07945205 11.1616438,6.06027397 C11.1808219,6.06027398 11.1808219,6.04109589 11.2,6.04109589 L11.2,6.04109589 L11.2958904,5.98356164 C11.2958904,5.96438356 11.3150685,5.96438356 11.3150685,5.96438356 C11.3534247,5.94520548 11.3726027,5.94520548 11.3917808,5.92602739 C11.4109589,5.92602739 11.4109589,5.90684931 11.430137,5.90684931 C11.4493151,5.88767123 11.4684931,5.88767123 11.4876712,5.86849315 C11.5068493,5.86849315 11.5068493,5.84931506 11.5260274,5.84931506 C11.5260274,5.83013699 11.5452055,5.8109589 11.5643836,5.8109589 L11.5643836,5.8109589 L11.5835616,5.79178082 L11.5835616,5.79178082 L11.6410959,5.75342466 C11.6410959,5.73424657 11.660274,5.73424657 11.660274,5.73424657 C11.6794521,5.71506849 11.6986301,5.71506849 11.7178082,5.6958904 L11.7178082,5.6958904 L11.7561644,5.65753424 C11.7753425,5.65753424 11.7753425,5.65753424 11.7945205,5.63835616 L11.7945205,5.63835616 L11.7561644,5.63835616 L11.7561644,3.77808219 C10.6438356,4.43013699 8.74520546,4.79452055 6.80821917,4.83287671 L6.80821917,4.83287671 L5.56164383,4.83287671 C5.44657534,4.83287671 5.33150684,4.81369863 5.21643835,4.81369863 L5.21643835,4.81369863 L5.15890411,4.81369863 C5.06301369,4.81369863 4.96712329,4.79452054 4.87123287,4.79452054 C4.83287671,4.77534247 4.79452054,4.77534247 4.75616438,4.77534247 C4.66027397,4.77534247 4.58356164,4.75616438 4.50684931,4.75616438 C4.46849315,4.7369863 4.43013698,4.7369863 4.39178082,4.7369863 C4.27671233,4.7369863 4.18082191,4.71780822 4.06575343,4.69863014 C4.04657534,4.67945205 4.00821918,4.67945205 3.9890411,4.67945205 C3.89315068,4.66027398 3.81643835,4.66027398 3.72054793,4.64109589 C3.68219178,4.64109589 3.6438356,4.62191781 3.60547945,4.62191781 C3.52876712,4.62191779 3.45205479,4.60273972 3.37534246,4.58356164 C3.3369863,4.58356165 3.31780821,4.56438356 3.27945205,4.56438356 C3.18356164,4.54520546 3.06849315,4.52602739 2.97260273,4.50684931 C2.93424656,4.50684932 2.91506849,4.48767123 2.8958904,4.48767123 L2.8958904,4.48767123 L2.66575343,4.43013699 L2.66575343,4.43013699 L2.56986301,4.4109589 C2.51232877,4.39178082 2.43561644,4.37260275 2.35890411,4.35342466 C2.33972602,4.35342466 2.30136986,4.33424657 2.28219178,4.33424657 C2.18630137,4.2958904 2.10958904,4.27671232 2.01369863,4.23835616 C1.99452054,4.23835617 1.97534247,4.21917809 1.95616438,4.21917809 C1.89863012,4.2 1.82191779,4.16164384 1.76438355,4.14246576 C1.74520546,4.12328767 1.70684931,4.12328767 1.68767122,4.10410958 C1.63013698,4.0849315 1.55342465,4.04657534 1.4958904,4.02739725 C1.47671232,4.02739727 1.45753424,4.00821918 1.43835616,4.00821918 L1.43835616,4.00821918 L1.20821917,3.89315068 C1.18904108,3.87397261 1.16986301,3.87397261 1.15068492,3.85479452 C1.09315068,3.81643835 1.05479451,3.79726026 0.997260264,3.75890411 C0.978082191,3.75890411 0.978082191,3.73972602 0.958904105,3.73972602 L0.958904105,3.73972602 Z M6.42465753,0.958904105 C2.91506849,0.958904105 1.01643835,1.93698631 1.01643835,2.39726028 C1.01643835,2.47397261 1.05479451,2.56986301 1.15068492,2.66575343 C1.64931506,3.18356164 3.47123287,3.87397259 6.42465753,3.87397259 L6.42465753,3.87397259 L7.2059868,3.87326229 C7.3153729,3.8718417 7.4219178,3.8675799 7.5369863,3.85479452 L7.5369863,3.85479452 L7.59452054,3.85479452 C7.76712327,3.83561644 7.92054793,3.83561644 8.07397259,3.81643835 L8.07397259,3.81643835 L8.11232877,3.81643835 L8.57260273,3.75890411 L8.6109589,3.75890411 C8.76438356,3.73972602 8.89863014,3.72054795 9.03287671,3.70136986 C9.0520548,3.68219178 9.07123287,3.68219178 9.09041096,3.68219178 L9.09041096,3.68219178 L9.41643835,3.62465753 L9.41643835,3.62465753 L9.55068492,3.58630137 C9.62739725,3.58630136 9.70410958,3.56712329 9.76164383,3.5479452 L9.76164383,3.5479452 L10.0493151,3.47123287 C10.0684931,3.47123287 10.0876712,3.45205479 10.1068493,3.45205479 C10.6630137,3.29863014 11.1041096,3.10684932 11.3917808,2.93424657 C11.430137,2.91506849 11.4684931,2.87671233 11.5068493,2.85753424 C11.5260274,2.85753424 11.5260274,2.83835616 11.5452055,2.83835616 C11.6986301,2.72328767 11.7945206,2.62739725 11.8328767,2.51232877 L11.8328767,2.51232877 L11.8328767,2.43561644 C11.8328767,1.9369863 9.93424657,0.958904105 6.42465753,0.958904105 Z" id="形状结合"></path>
                    <path d="M16,12.7894151 C15.9993144,13.0493049 15.9986097,13.3091546 15.9978955,13.5690543 C15.997667,13.6566978 15.9538085,13.7442323 15.8662568,13.818536 L15.7923995,13.871578 L12.5164997,15.8737807 C12.4132458,15.9368904 12.2857381,15.9763339 12.152072,15.9921113 L12.0170232,16 C11.8360084,16 11.6547687,15.9579269 11.5161969,15.8737807 L8.21887147,13.8715981 C8.07940462,13.7869211 8.0097569,13.6757644 8.01005116,13.564798 L8.012,12.789 L8.02037261,12.8515429 C8.03698064,12.9175322 8.07876128,12.9816669 8.14568366,13.0381884 L8.22097595,13.0919488 L11.5183014,15.0941315 C11.6568731,15.1782777 11.8381129,15.2203508 12.0191277,15.2203508 L12.1541764,15.2124621 C12.2878426,15.1966847 12.4153503,15.1572411 12.5186042,15.0941315 L15.794504,13.0919188 C15.9312474,13.0083535 15.9997143,12.8989594 16,12.7894151 Z M16,11.4079033 C15.9993144,11.667793 15.9986097,11.9276427 15.9978955,12.1875425 C15.997667,12.2751859 15.9538085,12.3627204 15.8662568,12.4370242 L15.7923995,12.4900762 L12.5164997,14.4922689 C12.4132458,14.5553748 12.2857381,14.5948159 12.152072,14.6105924 L12.0170232,14.6184807 C11.8360084,14.6184807 11.6547687,14.5764101 11.5161969,14.4922689 L8.21887147,12.4900962 C8.07940462,12.4054193 8.0097569,12.2942626 8.01005116,12.1832861 L8.012,11.407 L8.02037261,11.470035 C8.03698064,11.5360265 8.07876128,11.600159 8.14568366,11.6566826 L8.22097595,11.710457 L11.5183014,13.7126196 C11.6568731,13.7967608 11.8381129,13.8388314 12.0191277,13.8388314 L12.1541764,13.8309432 C12.2878426,13.8151667 12.4153503,13.7757255 12.5186042,13.7126196 L15.794504,11.710417 C15.9312474,11.6268316 15.9997143,11.5174476 16,11.4079033 Z M11.9865286,8 L12.1105617,8.00724422 C12.2334047,8.02172899 12.3508317,8.05793564 12.446233,8.11586626 L12.446233,8.11586626 L15.8017792,10.1533919 C15.9437787,10.2396162 16.0069137,10.3557591 15.9910052,10.4684132 L15.9878444,11.1951858 L15.9878444,11.1951858 C15.9875587,11.30474 15.9191013,11.4141241 15.7823483,11.4977094 L12.5064486,13.4999221 C12.2311049,13.6681945 11.7832892,13.6681945 11.5061458,13.4999121 L8.20882983,11.4977395 C8.06935346,11.4130625 7.99970574,11.3019058 8.00000094,11.1909294 L8.002,10.415 L8.01032144,10.4776783 C8.01057695,10.4786935 8.01083842,10.4797083 8.01110584,10.4807227 L8.00845062,10.4684509 L8.00845062,10.4684509 L8.00567293,10.4330626 C8.00513133,10.3318445 8.0679776,10.2306277 8.19434146,10.1533919 L8.19434146,10.1533919 L11.5281096,8.1158262 C11.6544544,8.0386054 11.8203844,7.99999499 11.9865286,8 Z M12.64154,10.9294157 L10.6260792,11.2586695 L12.1075931,12.1582686 L12.64154,10.9294157 Z M13.5811176,9.6239379 L12.365882,10.3667118 L13.589088,11.1094557 L14.8043427,10.3667018 L13.5811176,9.6239379 Z M10.2737605,9.72704781 L10.1344981,9.72747317 C9.71556428,9.75192985 9.40956757,9.97869993 9.4510572,10.2340028 C9.46921664,10.3456803 9.55088179,10.4443382 9.6720654,10.5179186 C9.82792051,10.6125505 10.0490811,10.6657503 10.2847635,10.6519897 C10.7037449,10.627573 11.009694,10.4007629 10.9681949,10.14547 C10.9500545,10.0337926 10.8683798,9.9351346 10.7471962,9.86154423 C10.5913601,9.76691232 10.3701805,9.71371253 10.1344981,9.72747317 Z M12.4619738,8.62739339 L11.89865,8.97748843 L11.3315457,8.78782399 L11.5190442,9.22959651 L10.987716,9.60648172 L11.6668623,9.52940613 L11.9055443,9.95201992 L12.1378081,9.46254586 L12.8166972,9.34694249 L12.281103,9.12146435 L12.4619738,8.62739339 Z" id="形状结合"></path>
                </g>
            </g>
        </g>
    </g>
</svg>