<?xml version="1.0" encoding="UTF-8"?>
<svg width="16px" height="16px" viewBox="0 0 16 16" version="1.1" xmlns="http://www.w3.org/2000/svg" xmlns:xlink="http://www.w3.org/1999/xlink">
    <title>工单icon</title>
    <g id="门户" stroke="none" stroke-width="1" fill="none" fill-rule="evenodd">
        <g id="左导航设计规范" transform="translate(-979.000000, -163.000000)" fill="#333333" fill-rule="nonzero">
            <g id="工单icon" transform="translate(979.000000, 163.000000)">
                <path d="M11.8537819,2.39948575 L11.7310478,2.71283479 C11.5560337,3.15727648 11.6612936,3.66319424 11.9990497,4.00095033 C12.3368058,4.33870643 12.8427235,4.44396632 13.2871652,4.26895221 L13.6005142,4.14621812 L16,6.54536105 L6.54536105,16 L4.14621812,13.6001714 L4.26895221,13.2871652 C4.44396632,12.8427235 4.33870643,12.3368058 4.00095033,11.9990497 C3.66319424,11.6612936 3.15727648,11.5560337 2.71283479,11.7310478 L2.39948575,11.8537819 L0,9.45463895 L9.45463895,0 L11.8537819,2.39982858 L11.8537819,2.39948575 Z M10.6716949,2.67203771 L9.45463895,1.45498178 L7.87863724,3.03029783 L8.72714806,3.87880865 L8,4.60629954 L7.15148918,3.75778872 L1.45463895,9.45463895 L2.67169487,10.6716949 C3.4145686,10.5079758 4.18963239,10.7345747 4.72731947,11.2726805 C5.26530995,11.8102945 5.49189962,12.5851976 5.32830511,13.3279623 L6.54536105,14.5450182 L12.2422113,8.84851082 L11.3940433,8 L12.1215342,7.27285194 L12.970045,8.12136276 L14.5457039,6.54536105 L13.328648,5.32830511 C12.5857742,5.49202422 11.8107104,5.26542535 11.2730234,4.72731947 C10.7350329,4.18970547 10.5084432,3.41480242 10.6720377,2.67203771 L10.6716949,2.67203771 Z M11.3940433,6.54536105 L10.6672381,7.27285194 L8.72749089,5.3334476 L9.45498179,4.60629954 L11.3940433,6.54536105 L11.3940433,6.54536105 Z M7.03081209,6.54536105 L7.75761731,7.27285194 L5.33379045,9.69667882 L4.60664239,8.96987358 L7.03046925,6.54536105 L7.03081209,6.54536105 Z M8.72783373,8.24238269 L9.45463895,8.96953075 L7.03081209,11.3937005 L6.30332118,10.6668952 L8.72749089,8.24238269 L8.72783373,8.24238269 Z" id="形状"></path>
            </g>
        </g>
    </g>
</svg>