<?xml version="1.0" encoding="UTF-8"?>
<svg width="14px" height="14px" viewBox="0 0 14 14" version="1.1" xmlns="http://www.w3.org/2000/svg" xmlns:xlink="http://www.w3.org/1999/xlink">
    <title>密钥管理icon</title>
    <g id="门户" stroke="none" stroke-width="1" fill="none" fill-rule="evenodd">
        <g id="左导航设计规范" transform="translate(-980.000000, -374.000000)" fill="#333333" fill-rule="nonzero">
            <g id="密钥管理icon" transform="translate(980.000000, 374.000000)">
                <path d="M7.46885413,1.28145278 C8.81574014,2.62833879 9.10088087,4.63490875 8.3242763,6.2611098 L14,11.9375329 L13.6562555,13.6562555 L11.9375329,14 L10.5753935,12.6378606 L9.21557738,12.6530226 L9.20557169,11.2680388 L7.81941486,11.2568601 L7.81522119,9.87768831 L6.43402323,9.87146843 L5.96349957,8.45299148 C4.39570073,9.06270075 2.54725361,8.73465496 1.28145278,7.46885413 C-0.427150926,5.76025043 -0.427150926,2.99005648 1.28145278,1.28145278 C2.99005648,-0.427150926 5.76025043,-0.427150926 7.46885413,1.28145278 Z M7.81132387,7.1250362 L6.86121402,8.07514605 L7.13552215,8.90219536 L8.78453889,8.90978721 L8.7882458,10.2922982 L10.1708854,10.3035357 L10.1804111,11.6693387 L10.9736147,11.6611037 L12.2559405,12.9446309 L12.8293064,12.8291328 L12.9434295,12.2571419 L7.81132387,7.1250362 Z M1.96894182,1.96894182 C0.640027825,3.29785581 0.640027825,5.4524511 1.96894182,6.78136509 C3.29785581,8.11027908 5.4524511,8.11027908 6.78136509,6.78136509 C8.11027908,5.4524511 8.11027908,3.29785581 6.78136509,1.96894182 C5.4524511,0.640027825 3.29785581,0.640027825 1.96894182,1.96894182 Z M4.71889797,2.65643086 C5.28843254,3.22596542 5.28843254,4.14936341 4.71889797,4.71889797 C4.14936341,5.28843254 3.22596542,5.28843254 2.65643086,4.71889797 C2.08689629,4.14936341 2.08689629,3.22596542 2.65643086,2.65643086 C3.22596542,2.08689629 4.14936341,2.08689629 4.71889797,2.65643086 Z M3.34391989,3.34391989 C3.15407504,3.53376475 3.15407504,3.84156408 3.34391989,4.03140893 C3.53376475,4.22125379 3.84156408,4.22125379 4.03140893,4.03140893 C4.22125379,3.84156408 4.22125379,3.53376475 4.03140893,3.34391989 C3.84156408,3.15407504 3.53376475,3.15407504 3.34391989,3.34391989 Z" id="形状结合"></path>
            </g>
        </g>
    </g>
</svg>